<svg width="207" height="224" fill="none" xmlns="http://www.w3.org/2000/svg"><path d="M116.913 104.045H99.476c-7.812 0-14.135 6.323-14.135 14.136v100.716a4.665 4.665 0 004.65 4.65H126.4a4.664 4.664 0 004.65-4.65l-.001-100.716c0-7.813-6.325-14.136-14.136-14.136zm75.603-58.678H173.08c-7.813 0-14.136 6.37-14.136 14.135v159.399a4.634 4.634 0 004.65 4.65h38.408a4.664 4.664 0 004.65-4.65V59.502c0-7.765-6.323-14.135-14.135-14.135h-.001zM29.815 159.148H14.657c-7.765 0-14.135 6.325-14.135 14.136v45.613a4.664 4.664 0 004.65 4.65h34.13a4.634 4.634 0 004.65-4.65v-45.613c-.001-7.813-6.324-14.136-14.137-14.136zM170.509 21.663l-3.726 5.433a4.65 4.65 0 003.832 7.278 4.655 4.655 0 003.842-2.02l10.054-14.66c.084-.124.096-.269.167-.397.224-.401.438-.808.536-1.263a4.6 4.6 0 00.029-1.687c-.007-.044.01-.083.002-.126 0-.002-.002-.002-.002-.002a4.678 4.678 0 00-1.936-2.985l-.005-.005-14.659-10.056a4.649 4.649 0 00-5.259 7.67l5.374 3.686-10.518 1.935c-11.779 2.164-22.292 9.156-28.845 19.184L116.29 53.693c-6.316 9.661-16.448 16.418-27.796 18.536l-12.627 2.355c-10.513 1.961-19.739 7.82-25.98 16.507l-39.051 54.33a4.645 4.645 0 003.768 7.362c1.448 0 2.87-.671 3.778-1.936l39.052-54.33a31.91 31.91 0 0120.138-12.792L90.2 81.37c13.827-2.582 26.173-10.814 33.87-22.587l13.106-20.049c5.168-7.905 13.454-13.418 22.74-15.125l10.593-1.946z" fill="#FFC501" fill-opacity=".1"/></svg>