<svg width="245" height="244" fill="none" xmlns="http://www.w3.org/2000/svg"><path d="M143.892 107.226h-5.955c-6.699 6.203-17.366 10.172-29.523 10.172s-22.825-3.969-29.523-10.172h-4.218c-21.583 0-39.198 13.149-39.198 29.523h145.877c0-16.124-16.869-29.523-37.461-29.523h.001z" fill="#FFC501" fill-opacity=".1"/><path d="M108.416 22.132c-24.312 0-43.912 19.598-43.912 43.912 0 24.312 19.598 43.912 43.912 43.912 24.312 0 43.912-19.598 43.912-43.912-.249-24.314-19.849-43.912-43.912-43.912zm0 77.9c-18.854 0-33.988-15.381-33.988-33.988 0-2.976.497-5.706.992-8.187 3.97 1.985 11.163 4.714 19.598 4.714 5.955 0 12.404-1.488 18.359-5.705.744-.497 15.63-11.164 27.538-.497.992 2.977 1.488 6.45 1.488 9.675 0 18.607-15.381 33.988-33.988 33.988h.001zm102.955 139.179h-24.065c1.488-1.985 2.482-4.465 2.482-7.194v-78.645c0-6.699-5.458-11.908-11.908-11.908H38.95c-6.7 0-11.908 5.458-11.908 11.908v78.645c0 2.729.991 5.211 2.481 7.194H2.233A2.222 2.222 0 000 241.443v.247c0 1.241.992 2.233 2.232 2.233h209.14a2.223 2.223 0 002.233-2.233v-.247a2.223 2.223 0 00-2.233-2.231l-.001-.001zM108.414 205.47a13.34 13.34 0 01-13.396-13.396 13.34 13.34 0 0113.396-13.396 13.34 13.34 0 0113.396 13.396 13.341 13.341 0 01-13.396 13.396zm94.025-162.995l-3.226-3.224-3.473 3.473 6.451 6.203.247.496 10.42-10.42.497-.496-3.473-3.473-7.443 7.441z" fill="#FFC501" fill-opacity=".1"/><path d="M242.879 30.32c-5.458-21.584-27.291-34.485-48.874-29.027-21.583 5.458-34.484 27.29-29.026 48.873 2.729 10.173 8.931 18.36 17.118 23.818l-10.668 16.125 42.424-10.916c21.583-5.459 34.484-27.291 29.026-48.874zM221.79 42.226c-1.488 6.699-5.457 15.63-16.869 20.84l-.991.496-.992-.497c-11.413-4.961-15.381-13.892-16.869-20.839-1.488-6.946-.497-12.652-.248-13.396l.497-2.232h2.482c1.488 0 9.427-.248 13.148-6.203l2.233-3.473 1.98 3.72c3.473 5.706 11.66 6.203 13.148 6.203h2.482l.497 2.232c0 .497.991 6.203-.497 13.15h-.001z" fill="#FFC501" fill-opacity=".1"/></svg>