<svg width="249" height="210" fill="none" xmlns="http://www.w3.org/2000/svg"><path d="M243.02 198.933h-12.046V48.62c0-2.095-1.048-4.19-3.143-4.714L126.224.435c-1.572-.524-2.619-.524-4.19 0L20.426 43.905c-2.095 1.048-3.142 2.62-3.142 4.715v150.313H5.238c-2.62 0-5.238 2.619-5.238 5.237 0 2.619 2.619 5.238 5.237 5.238H41.9V63.285c0-2.62 2.619-5.238 5.238-5.238H201.12c2.619 0 5.237 2.619 5.237 5.238v146.123h36.663c2.619 0 5.237-2.619 5.237-5.238 0-2.618-2.095-5.237-5.237-5.237z" fill="#FFC501" fill-opacity=".1"/><path d="M113.656 150.748H94.801v20.95c0 2.619-2.095 5.237-5.237 5.237-2.62 0-5.238-2.618-5.238-5.237v-20.95H65.471c-2.619 0-5.237 2.619-5.237 5.237v48.185c0 2.619 2.618 5.238 5.237 5.238h48.185c2.619 0 5.238-2.619 5.238-5.238v-48.185c0-3.142-2.095-5.237-5.238-5.237zm69.136 0h-18.855v20.95c0 2.619-2.619 5.237-5.238 5.237s-5.237-2.618-5.237-5.237v-20.95h-18.855c-3.143 0-5.238 2.619-5.238 5.237v48.185c0 2.619 2.095 5.238 5.238 5.238h48.185c2.618 0 5.237-2.619 5.237-5.238v-48.185c0-3.142-2.095-5.237-5.237-5.237zm-35.088-69.135h-18.855v20.95c0 2.619-2.619 5.237-5.238 5.237s-5.237-2.618-5.237-5.237v-20.95H99.519c-3.143 0-5.238 2.619-5.238 5.237v48.185c0 2.619 2.095 5.238 5.237 5.238h48.186c2.618 0 5.237-2.619 5.237-5.238V86.851c0-3.143-2.095-5.238-5.237-5.238z" fill="#FFC501" fill-opacity=".1"/></svg>