<svg width="218" height="121" fill="none" xmlns="http://www.w3.org/2000/svg"><path d="M214.068 83.369V57.314a19.834 19.834 0 00-5.384-13.559l-20.503-21.758a19.843 19.843 0 00-14.423-6.137h-40.893V.268h-90.97a10.603 10.603 0 00-10.6 10.571V21.44H8.17a7.239 7.239 0 100 14.477h54.033a9.427 9.427 0 017.285 14.47 9.431 9.431 0 01-8.233 4.36H40.473v.167H26.276a7.948 7.948 0 00-6.491 11.775 7.949 7.949 0 006.49 4.098H54.17a7.926 7.926 0 015.947 4.662 7.927 7.927 0 01-.667 7.526 7.917 7.917 0 01-6.675 3.544h-12.3v6.668a4.631 4.631 0 00-3.015 4.324v7.894h22.875a21.75 21.75 0 016.087-15.886 21.751 21.751 0 0115.658-6.651 21.76 21.76 0 0121.745 22.537h52.583a21.758 21.758 0 0137.404-15.886 21.75 21.75 0 016.087 15.886h17.963v-17.49a4.626 4.626 0 00-3.792-4.546h-.002zm-27.337-30.686h-35.484a4.35 4.35 0 01-4.351-4.351V33.826a4.353 4.353 0 014.351-4.353h21.815a4.36 4.36 0 013.18 1.395l13.556 14.644v.002a4.348 4.348 0 01.829 4.631 4.357 4.357 0 01-3.868 2.678l-.028-.14z" fill="#FFC501" fill-opacity=".1"/><path d="M178.138 90.089a15.317 15.317 0 00-10.829 26.144 15.315 15.315 0 0026.142-10.829 15.313 15.313 0 00-15.313-15.315zm0 22.651a7.336 7.336 0 11-.003-14.671 7.336 7.336 0 01.003 14.671zm-96.07-22.651a15.313 15.313 0 00-15.287 15.333 15.307 15.307 0 004.495 10.821 15.32 15.32 0 0021.651-.012 15.314 15.314 0 00-.014-21.665 15.314 15.314 0 00-10.845-4.477zm0 22.651a7.335 7.335 0 110-14.671 7.336 7.336 0 110 14.671z" fill="#FFC501" fill-opacity=".1"/></svg>