<svg width="195" height="181" fill="none" xmlns="http://www.w3.org/2000/svg"><path fill-rule="evenodd" clip-rule="evenodd" d="M176.465 149.345h-44.086c-3.699 0-3.703 5.627 0 5.627h27.68c7.093 0 12.861 5.769 12.861 12.865 0 7.095-5.766 12.866-12.861 12.866H36.119V76.946l3.458-.01c8.134-.023 14.565-3.227 19.201-9.933 8.047-11.637 9.02-13.804 20.966-21.614 13.758-8.992 19.477-24.677 22.928-35.012 2.339-7.006 9.53-13.162 14.617-7.807 9.181 9.661 5.378 41.162-5.468 53.684-1.57 1.813-.273 4.657 2.127 4.657h59.337c7.096 0 12.862 5.766 12.862 12.861 0 7.093-5.769 12.862-12.862 12.862H132.38c-3.703 0-3.698 5.627 0 5.627h49.481c7.093 0 12.862 5.77 12.862 12.864 0 7.093-5.77 12.862-12.862 12.862l-49.481.001c-3.701 0-3.701 5.628 0 5.628h44.091c7.093 0 12.861 5.768 12.861 12.864 0 7.096-5.768 12.864-12.863 12.864l-.004.001zM.648 76.995l23.339-.043V180.7H.648V76.996z" fill="#FFC501" fill-opacity=".1"/></svg>