<svg width="48" height="55" fill="none" xmlns="http://www.w3.org/2000/svg"><path d="M.804 40.313h0C.539 43.289.28 53.732.27 54.18h0a.52.52 0 00.158.384.592.592 0 00.414.165H46.7c.16 0 .31-.062.416-.168L.804 40.312zm0 0v-.01m0 .01v-.01m0 0c.096-1.859 1.16-3.553 2.84-4.505L17.787 30l.377-.154-.29-.287a15.13 15.13 0 01-3.141-4.49 30.494 30.494 0 01-2.414-10.365l-.01-.206-.203-.043a.552.552 0 01-.438-.44c-.02-.125-.264-1.69-.158-3.63.107-1.951.566-4.23 1.911-5.817h.001a5.574 5.574 0 013.89-1.951l.094-.007.069-.062C18.632 1.505 20.587.703 22.843.4c2.25-.302 4.766-.102 7.028.825 1.423.583 3.302 1.696 4.76 3.782 1.454 2.083 2.503 5.16 2.228 9.7a.54.54 0 01-.377.469l-.167.056-.016.176a31.032 31.032 0 01-1.992 8.52v.001a16.532 16.532 0 01-4.146 6.14l-.31.292.395.156c2.722 1.08 9.735 3.863 12.69 5.077l.102-.25-.102.25c1.931.792 2.88 1.97 3.35 2.993.472 1.031.466 1.925.455 2.147v.024l.531 13.415h0M.805 40.304l46.467 13.87m0 0a.519.519 0 01-.155.389l.155-.388zM18.092 3.492h0c1.002-1.03 2.82-1.761 4.868-2.034 2.056-.275 4.39-.094 6.455.752h0c1.479.605 3.074 1.642 4.296 3.409 1.223 1.768 2.057 4.246 2.046 7.711l-.002.433-.387-.192a2.102 2.102 0 00-1.183-.2l-.241.03-.055-.237c-.313-1.361-1.193-2.545-2.441-3.275l-.002-.001a.6.6 0 00-.486-.056h-.002a28.318 28.318 0 01-7.9 1.233 12.82 12.82 0 01-6.916-1.684l-.01-.006h0a.597.597 0 00-.766.11l-.003.002h0a4.771 4.771 0 00-1.177 2.772l-.02.259-.26-.01a1.765 1.765 0 00-.854.178l-.364.179-.024-.405c-.055-.933-.064-2.234.148-3.55.212-1.31.649-2.663 1.506-3.674l3.774-1.744zm0 0a.585.585 0 01-.386.173m.386-.173l-.386.173m0 0a4.497 4.497 0 00-3.388 1.57s0 0 0 0l3.388-1.57zM23.5 38.477l.145.092.145-.093 2.026-1.295.147-.095-.026-.173-.278-1.843-.034-.23h-3.96l-.035.23-.278 1.843-.026.173.148.095 2.026 1.296zm-.177 1.186h0l-.68-.434-.384-.246-.03.455-.91 13.931-.019.288h4.69l-.018-.288-.911-13.93-.03-.456-.384.245-.68.435h0a.603.603 0 01-.644 0zm-7.545-15.038h0l.003.01c.722 1.552 1.85 3.239 3.295 4.54 1.444 1.302 3.222 2.235 5.232 2.235 2.128 0 3.981-1.042 5.485-2.535 1.502-1.492 2.674-3.451 3.449-5.338h0l.002-.006a30.258 30.258 0 001.95-8.603l.01-.124-.09-.088a1.008 1.008 0 00-1.06-.22l-.569.174s0 0 0 0a.604.604 0 01-.53-.088h0a.524.524 0 01-.22-.447h0l.027-.581.001-.026-.003-.025a3.613 3.613 0 00-1.611-2.5l-.104-.069-.12.035a29.601 29.601 0 01-7.876 1.168h0-.005a14.636 14.636 0 01-6.869-1.477l-.22-.107-.128.207a3.322 3.322 0 00-.496 1.892h0v.007l.044.619h0a.522.522 0 01-.223.46h0a.6.6 0 01-.547.078h0l-.609-.213-.026-.01-.029-.003a.708.708 0 00-.34.04l-.18.068.007.193a29.956 29.956 0 002.35 10.734zM4.133 36.768l-.04.017-.02.016c-1.272.798-2.069 2.14-2.129 3.607-.22 2.475-.441 10.392-.51 12.971l-.006.277h18.725l.016-.252.978-14.968.01-.16-.134-.085-.636-.407h0a.522.522 0 01-.244-.518h0l.457-3.038s0 0 0 0a.562.562 0 01.567-.462h4.955c.294 0 .528.205.567.462 0 0 0 0 0 0l.457 3.038h0a.522.522 0 01-.245.518h0l-.636.407-.134.086.01.159.979 14.968.016.252h18.971l-.011-.28-.5-12.615s0 0 0 0c0-.02 0-.04.002-.063h0v-.006c.006-.075.04-.767-.337-1.612-.38-.853-1.17-1.841-2.782-2.503h0c-3.371-1.384-12.034-4.816-13.552-5.417l-.129-.051-.116.075a8.26 8.26 0 01-4.372 1.3 8.739 8.739 0 01-5.055-1.77l-.123-.094-.143.058-14.856 6.09z" fill="#000" stroke="#fff" stroke-width=".539"/></svg>