<svg width="49" height="55" fill="none" xmlns="http://www.w3.org/2000/svg"><path d="M38.428 35.594l-.13.124.126.127L48.469 45.93h0c.138.137.184.34.108.52h0a.482.482 0 01-.445.3h-6.969v6.97a.482.482 0 01-.3.445h-.001l-.01.004a.464.464 0 01-.509-.112L27.322 41.036l-.06-.06-.086.01a21.07 21.07 0 01-2.664.183 21.23 21.23 0 01-2.664-.183l-.085-.01-.06.06L8.68 54.057h0l-.007.007a.442.442 0 01-.33.14.394.394 0 01-.172-.034h0l-.01-.005a.482.482 0 01-.302-.445v-6.969H.892a.482.482 0 01-.445-.3h0l-.001-.004a.478.478 0 01.109-.516h0l10.072-10.086.127-.127-.13-.124c-4.021-3.812-6.331-9.099-6.331-14.66C4.293 9.775 13.365.703 24.526.703c11.16 0 20.233 9.072 20.233 20.233 0 5.56-2.31 10.847-6.331 14.66zM8.827 52.127v.422l.299-.298 11.244-11.23.227-.228-.314-.068a20.228 20.228 0 01-8.694-4.242l-.122-.103-.113.113-8.993 8.993-.299.299h6.282c.272 0 .483.211.483.483v5.86zm18.566-12.123h.002c3.681-.545 7.097-2.153 9.9-4.637a19.27 19.27 0 006.498-14.43c0-10.631-8.638-19.268-19.267-19.268-10.63 0-19.267 8.638-19.267 19.267a19.273 19.273 0 006.497 14.43 19.213 19.213 0 009.843 4.629l.002.002.058.007c2.017.266 3.717.266 5.733 0zm12.532 12.248l.299.298v-6.282c0-.271.211-.483.483-.483h6.282l-.299-.298-9.006-9.006-.113-.114-.123.103a20.032 20.032 0 01-8.68 4.242l-.315.067.228.228 11.244 11.245z" fill="#000" stroke="#fff" stroke-width=".35"/><path d="M37.69 16.962h0l-.003.003-6.19 6.043-.065.064.015.09 1.461 8.53v.002a.497.497 0 01-.194.475l-.006.005-.005.004a.412.412 0 01-.267.089.439.439 0 01-.216-.056h0l-.005-.003-7.663-4.029-.081-.043-.082.043-7.663 4.03h0a.491.491 0 01-.512-.04h0l-.005-.003a.472.472 0 01-.19-.472s0 0 0 0l1.462-8.531.015-.09-.066-.065-6.201-6.044h0l-.003-.002a.465.465 0 01-.124-.488.485.485 0 01.387-.33s0 0 0 0l8.57-1.25.091-.014.04-.082 3.832-7.768s0 0 0 0c.075-.15.245-.239.436-.239s.36.089.436.239c0 0 0 0 0 0l3.83 7.768.041.082.091.013 8.57 1.25c.175.03.33.158.388.33h0a.466.466 0 01-.124.489zM24.675 27.157h0l.005.003 6.808 3.567.313.164-.06-.348-1.29-7.558h0v-.003a.466.466 0 01.135-.422s0 0 0 0l5.49-5.358.253-.248-.35-.05-7.584-1.107h0-.005a.446.446 0 01-.362-.256h0l-.002-.003-3.397-6.873-.157-.317-.157.317-3.395 6.868a.522.522 0 01-.368.264h0-.003l-7.583 1.107-.35.051.253.247 5.488 5.358h.001a.491.491 0 01.135.423v.003l-1.29 7.557-.06.35.313-.165 6.781-3.569h0l.005-.002a.438.438 0 01.433 0z" fill="#000" stroke="#fff" stroke-width=".35"/></svg>