<svg width="68" height="54" fill="none" xmlns="http://www.w3.org/2000/svg"><path d="M62.265 48.376v.4h3.72c.423 0 .706.307.706.617v3.055c0 .31-.285.618-.707.618H1.792c-.423 0-.707-.308-.707-.618v-3.054c0-.31.285-.618.707-.618h3.72V11.73c0-.31.285-.618.707-.618h6.641c.423 0 .707.308.707.618v37.045h4.12V19.874c0-.31.285-.618.707-.618h6.641c.423 0 .707.308.707.618l-.001 28.502v.4h4.12V6.64c0-.31.285-.618.707-.618h6.641c.423 0 .707.308.707.618v42.135h4.12V11.73c0-.31.285-.618.707-.618h6.64c.423 0 .708.308.708.618v37.045h4.12V1.552c0-.31.285-.618.707-.618h6.64c.423 0 .708.308.708.618l-.001 46.824zM56.025 2.17h-.4v46.606h5.227V2.17h-4.827zM43.85 12.349h-.4v36.427h5.227V12.349H43.85zm-12.174-5.09h-.4v41.517h5.227V7.259h-4.827zM19.502 20.492h-.4v28.283h5.226V20.492h-4.826zM7.328 12.349h-.4v36.427h5.226V12.349H7.328zm57.551 39.48h.4v-1.818H2.501v1.818h62.378z" fill="#000" stroke="#fff" stroke-width=".8"/></svg>