<svg width="58" height="54" fill="none" xmlns="http://www.w3.org/2000/svg"><path d="M57.459 28.7h0a.647.647 0 00-.871-.276s0 0 0 0l-10.62 5.536-.48.25v-2.649l.176-.092 11.52-6.002h0a.635.635 0 00.275-.866l-.003-.005h0a.64.64 0 00-.87-.265l-10.619 5.53-.48.249v-2.544l.177-.091 11.52-6.002.007-.004h0a.617.617 0 00.341-.572.655.655 0 00-.367-.578s0 0 0 0l-17.842-8.612-.004-.002h0a.653.653 0 00-.559.003L.757 30.284l-.005.002h0a.631.631 0 00-.356.575c0 .24.138.46.364.58l18.992 9.22s0 0 0 0a.58.58 0 00.568-.002l.012-.006h0l12.26-6.383.48-.25v2.551l-.177.092-12.72 6.625-.147.076-.148-.072-18.565-9.02-.003-.001a.647.647 0 00-.85.296.637.637 0 00.297.852l.003.002h0l18.996 9.235s0 0 0 0c.088.042.182.06.285.06a.734.734 0 00.3-.07l12.255-6.394.48-.25v2.649l-.177.092-12.72 6.626-.147.076-.148-.072L1.32 38.366l-.005-.002h0a.637.637 0 00-.855.303h0a.641.641 0 00.298.852l.002.002h0l18.996 9.222h.001a.58.58 0 00.568-.002l.011-.006h0l12.26-6.383.48-.25v2.518l-.176.092-12.72 6.625-.147.076-.149-.072-18.56-9.004-.002-.001a.655.655 0 00-.863.3.64.64 0 00.301.86L57.46 28.7zm0 0a.635.635 0 01-.275.867s0 0 0 0l-11.52 5.99-.176.091v2.531l.48-.25 10.62-5.544.003-.001a.643.643 0 01.869.28.628.628 0 01-.273.857l-.004.002L45.14 39.8h0L20.336 52.704h0l-.011.006a.58.58 0 01-.284.075.506.506 0 01-.262-.055l-.01-.006-.01-.005L.76 43.496l56.7-14.795zm-18.27-15.636l-.144-.069-.144.07-10.142 4.96-.6.293.6.295 15.862 7.8.15.073.146-.076 9.958-5.183.58-.301-.588-.285-15.679-7.577zM19.884 39.291l.149.073.146-.077 11.54-6.009.575-.299-.582-.286-16.282-8.01-.144-.07-.144.07-12.025 5.871-.605.296.606.294 16.766 8.147zm14.66-6.03l-.176.091v10.606l.48-.25 9.17-4.781.177-.092V27.64l-.184-.09-17.167-8.45-.144-.07-.145.07-9.203 4.5-.601.294.6.295 16.216 7.977.149.074.147-.077 6.318-3.28h.002a.636.636 0 01.86.272.643.643 0 01-.271.864l-.002.001-6.225 3.24zM5.293 7.365v0c0 .665.373 1.299.97 1.858.601.563 1.462 1.084 2.526 1.528 2.13.889 5.126 1.494 8.64 1.494 3.515 0 6.511-.605 8.64-1.494 1.064-.444 1.925-.965 2.526-1.528.597-.56.97-1.193.97-1.858s-.373-1.3-.97-1.858c-.6-.563-1.462-1.084-2.525-1.528-2.13-.889-5.126-1.495-8.64-1.495-3.512 0-6.508.606-8.639 1.495-1.064.444-1.925.964-2.527 1.527-.597.56-.97 1.194-.97 1.859zm25.564.006c0 1.656-1.328 3.195-3.75 4.338-2.404 1.136-5.792 1.829-9.678 1.829-3.885 0-7.272-.693-9.675-1.828-2.42-1.144-3.747-2.683-3.747-4.339 0-1.655 1.327-3.194 3.747-4.338 2.403-1.135 5.79-1.828 9.675-1.828 3.889 0 7.277.693 9.68 1.828 2.421 1.144 3.748 2.683 3.748 4.338z" fill="#000" stroke="#fff" stroke-width=".656"/><path d="M5.389 12.36h0c.213.47.707.892 1.36 1.262.663.377 1.537.726 2.58 1.025 2.088.598 4.888 1.002 8.108 1.002 3.223 0 6.022-.404 8.109-1.002 1.043-.299 1.916-.648 2.578-1.025.65-.37 1.143-.793 1.354-1.262a.648.648 0 01.854-.327.643.643 0 01.337.808l-.02.044c-.288.643-.884 1.229-1.745 1.745-.857.514-1.952.944-3.193 1.287-2.481.688-5.503 1.018-8.275 1.018h0c-2.773 0-5.792-.33-8.274-1.018-1.24-.344-2.335-.773-3.195-1.288-.861-.516-1.46-1.101-1.752-1.745h0v-.002a.632.632 0 01.319-.842h0l.005-.002a.641.641 0 01.85.322zm-.852 3.345h.002a.646.646 0 01.85.323c.212.47.707.894 1.358 1.265.664.377 1.539.727 2.582 1.026 2.088.599 4.887 1.004 8.107 1.004a.64.64 0 01.642.608v.034a.644.644 0 01-.642.643h0c-2.773 0-5.792-.33-8.274-1.018-1.24-.344-2.335-.773-3.195-1.288-.861-.516-1.46-1.101-1.752-1.745h0a.64.64 0 01.322-.852zm6.856 7.653v0a.638.638 0 00.634-.546l-.633.546zm0 0a.69.69 0 01-.096-.01c-1.385-.208-2.939-.527-4.262-1.012-1.342-.49-2.369-1.124-2.8-1.91h0l-.001-.004a.645.645 0 011.133-.613c.098.181.29.366.55.547a6.01 6.01 0 001.115.591c.962.405 2.398.82 4.458 1.128h0c.347.052.59.38.537.736l-.633.547zm-6.068-.013l.013.019.016.017h0l.005.006.006.006c-.02-.02.04.05.132.124.093.076.231.172.437.281.411.219 1.096.494 2.234.77.354.09.561.439.476.775v.001a.65.65 0 01-.776.477h0-.003c-.994-.24-1.781-.509-2.38-.806-.6-.297-.989-.614-1.211-.938h0l-.002-.003a.64.64 0 111.053-.73z" fill="#000" stroke="#fff" stroke-width=".656"/><mask id="path-7-inside-1_1_743" fill="#fff"><path d="M29.854 24.197c2.228-.927 4.323-.983 4.68-.127.355.857-1.162 2.302-3.39 3.228-2.228.927-4.323.983-4.68.127-.356-.857 1.162-2.302 3.39-3.228"/></mask><path d="M29.854 24.197c2.228-.927 4.323-.983 4.68-.127.355.857-1.162 2.302-3.39 3.228-2.228.927-4.323.983-4.68.127-.356-.857 1.162-2.302 3.39-3.228" fill="#000"/><path d="M34.533 24.07l.606-.252-.606.252zm-3.39 3.228l.252.606-.251-.606zm-4.679.127l-.605.252.605-.252zm3.642-2.623c1.06-.44 2.06-.661 2.807-.681.377-.01.653.031.831.095a.548.548 0 01.16.083.118.118 0 01.023.022l1.212-.503c-.185-.443-.568-.7-.953-.837-.384-.138-.837-.185-1.308-.172-.946.026-2.107.296-3.276.782l.504 1.211zm3.821-.48l.001.004c0 .004.002.013 0 .028a.546.546 0 01-.055.173c-.08.17-.246.396-.518.656-.542.516-1.404 1.07-2.463 1.51l.504 1.211c1.168-.486 2.179-1.119 2.864-1.771.34-.325.627-.679.8-1.049.174-.37.263-.822.079-1.266l-1.212.504zm-3.035 2.37c-1.06.44-2.06.662-2.808.682-.376.01-.652-.031-.83-.095a.545.545 0 01-.161-.083.131.131 0 01-.023-.023l-1.211.504c.184.443.568.7.953.837.384.138.837.185 1.308.172.946-.026 2.107-.296 3.275-.782l-.503-1.211zm-3.822.48v-.003a.12.12 0 010-.029.543.543 0 01.054-.172c.08-.171.246-.396.519-.656.541-.516 1.404-1.07 2.463-1.51l-.504-1.21c-1.168.485-2.179 1.117-2.864 1.77-.341.324-.628.679-.801 1.048-.174.37-.263.823-.078 1.267l1.211-.504z" fill="#fff" mask="url(#path-7-inside-1_1_743)"/></svg>