<svg width="68" height="54" fill="none" xmlns="http://www.w3.org/2000/svg"><path d="M1.18 37.703h66.242v1.994H1.18v-1.994zm0 12.994h66.242v1.994H1.18v-1.994z" fill="#312C21" stroke="#fff" stroke-width="1.156"/><path d="M1.252 41.899h2.176v6.595H1.252V41.9zm31.959 0h2.177v6.595H33.21V41.9zm31.963 0h2.176v6.595h-2.176V41.9z" fill="#312C21" stroke="#fff" stroke-width="1.3"/><path d="M1.18 19.591h66.242v1.994H1.18v-1.994zm0 12.993h66.242v1.994H1.18v-1.994z" fill="#312C21" stroke="#fff" stroke-width="1.156"/><path d="M1.252 23.787h2.176v6.595H1.252v-6.595zm31.959 0h2.177v6.595H33.21v-6.595zm31.963 0h2.176v6.595h-2.176v-6.595z" fill="#312C21" stroke="#fff" stroke-width="1.3"/><path d="M1.18 1.478h66.242v1.994H1.18V1.478zm0 12.994h66.242v1.994H1.18v-1.994z" fill="#312C21" stroke="#fff" stroke-width="1.156"/><path d="M1.252 5.673h2.176v6.596H1.252V5.673zm31.959 0h2.177v6.596H33.21V5.673zm31.963 0h2.176v6.596h-2.176V5.673z" fill="#312C21" stroke="#fff" stroke-width="1.3"/></svg>