<svg width="62" height="53" fill="none" xmlns="http://www.w3.org/2000/svg"><path d="M33.264 20.622V17.08a.899.899 0 00-.899-.9H19.043a.9.9 0 00-.9.9l15.121 3.54zm0 0h.581m-.581 0h.581m0 0h4.44a.9.9 0 01.9.897 3.47 3.47 0 001.029 2.494m-6.369-3.391l6.369 3.391m-20.59 8.769v.58a3.86 3.86 0 005.79 3.343h0a3.86 3.86 0 001.93-3.342v-.581h7.082v.58a3.86 3.86 0 005.79 3.343h0a3.859 3.859 0 001.929-3.342v-.581h.58a.9.9 0 00.9-.9v-5.92a.9.9 0 00-.899-.9l-23.102 7.72zm0 0h-.58m.58 0h-.58m0 0a.9.9 0 01-.9-.9l.9.9zm21.17-8.769a3.528 3.528 0 002.512 1.05l-2.512-1.05zm-2.662-1.154l-.11-.44-.453.001h-3.725v8.563h8.562v-4.178l-.435-.113a5.3 5.3 0 01-2.437-1.396h0l-.005-.005a5.187 5.187 0 01-1.397-2.432zM22.003 32.78h-.581v.582a2.063 2.063 0 002.06 2.06h.002a2.063 2.063 0 002.06-2.06l.001-.582h-3.542zm-2.061-2.379v.58h11.523V17.98H19.942v12.422zm16.863 2.38h-.582v.581a2.063 2.063 0 002.062 2.06h.001a2.063 2.063 0 002.06-2.06v-.582h-3.541zm-18.661-.9V17.08v14.803z" fill="#000" stroke="#fff" stroke-width="1.162"/><path d="M10.053 37.023h0a24.726 24.726 0 01-1.718-18.278l.42-1.424.658 1.33 1.814 3.668h0a.9.9 0 001.205.408l-2.379 14.296zm0 0a24.724 24.724 0 0032.187 11.24m-32.187-11.24l32.187 11.24M9.42 14.69l-.03-.054a.485.485 0 00-.2-.191l-.056-.03-.048-.04a.922.922 0 00-.024-.019.872.872 0 00-.204-.049l-.031-.004-.03-.006a.873.873 0 00-.12-.019.864.864 0 00-.125.024l-.03.008-.031.005a.865.865 0 00-.172.045.672.672 0 01-.083.027L1.54 17.7a.9.9 0 00-.403 1.202h0a.9.9 0 001.2.41h.001l3.442-1.703 1.188-.588-.373 1.272a26.492 26.492 0 0010.11 29.07 26.493 26.493 0 0015.408 4.872h.003c3.746.003 7.45-.792 10.864-2.332a.9.9 0 00.448-1.19L9.42 14.69zm0 0l.043.046m-.042-.046l.042.046m0 0a.895.895 0 01.054.068l3.323 6.717s0 0 0 0m-3.377-6.785l3.377 6.786m29.4 26.742s0 0 0 0l-.24-.53a24.143 24.143 0 01-17.909.796l18.149-.266zm0 0a.899.899 0 011.187.45l-1.187-.45zm-29.4-26.742a.9.9 0 01-.408 1.205l.408-1.205zM59.436 34.09h0a.9.9 0 011.2.397l.006.012a.9.9 0 01-.408 1.204h0l-6.691 3.31a.654.654 0 00-.105.036l-.009.003-.009.004a.891.891 0 01-.314.082l-.022-.001a.895.895 0 01-.32-.07l-.083-.035-.01-.005a.875.875 0 01-.4-.393l-3.339-6.75s0 0 0 0a.9.9 0 01.41-1.202h0a.9.9 0 011.203.405l.06.121 1.754 3.544.658 1.331.42-1.424A24.724 24.724 0 0019.532 5.14a.9.9 0 01-1.189-.449h0a.899.899 0 01.448-1.189 26.523 26.523 0 0119.655-.88h0A26.518 26.518 0 0153.3 15.527h0a26.521 26.521 0 011.877 19.585l-.371 1.27 1.187-.587 3.443-1.704zm-5.958 4.956h.001zm-.653.085l-.003-.002a.063.063 0 00.003.002z" fill="#000" stroke="#fff" stroke-width="1.162"/></svg>