<svg width="71" height="49" fill="none" xmlns="http://www.w3.org/2000/svg"><mask id="path-1-inside-1_1_754" fill="#fff"><path d="M61.484 3.115a4.363 4.363 0 00-5.88-1.885l-2.519 1.295c-1.936.995-2.798 3.242-2.138 5.246l-3.3 1.537c-2.462.871-4.741.584-7.052-.303-2.937-1.125-3.621-.105-4.864-.002l-.012.003-4.923 1.175-1.76-1.11c-3.52-2.2-6.704-1.497-7.598-1.564a4.306 4.306 0 00-1.955-4.194l-2.381-1.535a4.367 4.367 0 00-6.038 1.306L1.15 18.47a4.368 4.368 0 001.305 6.038l2.38 1.533c1.465.944 3.404.982 4.98-.21.298.418.63.81 1.03 1.144l1.532 1.276-.178.19a3.631 3.631 0 00.17 5.106l1.077 1.014a3.602 3.602 0 002.285.965c.154.731.52 1.425 1.105 1.975l.835.785a3.774 3.774 0 002.593 1.029c.058 0 .114-.016.172-.018a3.773 3.773 0 001.051 1.76l.796.75c.601.566 1.362.9 2.173.994.135.48.388.917.759 1.267l2.314 2.175c.515.485 1.19.753 1.9.753.758 0 1.492-.317 2.015-.87 1.646 1.53 1.836 1.702 2.471 1.996a4.37 4.37 0 005.053-1.003 4.328 4.328 0 001.138-2.918c1.042-.094 2.058-.537 2.821-1.365a4.345 4.345 0 001.14-2.904 4.33 4.33 0 002.806-1.363 4.311 4.311 0 001.135-2.92c1.035-.098 2.042-.54 2.8-1.363a4.358 4.358 0 001.047-3.891l5.42-4.35 2.549-.94a4.356 4.356 0 005.642 1.485l2.516-1.295a4.375 4.375 0 001.887-5.883L61.484 3.115zm-55.07 20.48l-2.38-1.534a1.454 1.454 0 01-.436-2.013L13.513 4.66a1.455 1.455 0 012.012-.436l2.381 1.535c.679.439.87 1.339.434 2.013L8.425 23.158c-.419.653-1.356.861-2.011.436zm7.95 7.833a.712.712 0 01-.033-1.001l1.975-2.119a1.448 1.448 0 112.106 1.99c-.136.146-2.101 2.255-1.966 2.108a.71.71 0 01-1.005.034l-1.076-1.012zm5.3 4.738l-.835-.785a.87.87 0 01-.069-1.187l3.038-3.247a1.43 1.43 0 012.047-.04c.576.542.603 1.45.063 2.026l-3.006 3.195a.896.896 0 01-1.238.038zm3.818 2.77a.885.885 0 01-.062-1.235l2.09-2.22a1.445 1.445 0 012.045-.063c.59.553.608 1.473.067 2.044l-2.07 2.188a.925.925 0 01-1.274.036l-.796-.75zm5.94 5.091l-2.11-1.985.821-.871a1.447 1.447 0 012.048-.04c.278.262.439.617.45 1 .012.382-.126.746-.389 1.026l-.82.87zm19.246-11.714c-.509.55-1.4.674-2.084.054l-4.435-3.8a1.456 1.456 0 10-1.894 2.211l4.387 3.76.011.008c.586.543.622 1.462.08 2.05-.538.585-1.447.623-2.013.116-.006-.006-.01-.014-.018-.02l-3.784-3.651c-.506-.486-1.446-.594-2.057.036l-.002.001c-.595.616-.472 1.565.036 2.058h.001l.021.02 3.789 3.664.013.01c.57.544.605 1.45.068 2.032-.54.589-1.462.627-2.03.107l-2.77-2.675c-.531-.516-1.685-.843-2.385-.081a1.456 1.456 0 00.081 2.057l3.06 2.823a1.455 1.455 0 01-1.603 2.386c-.206-.095-.267-.143-1.78-1.546l-.139-.13c.225-.552.34-1.147.322-1.76a4.34 4.34 0 00-1.39-3.055 4.097 4.097 0 00-1.543-.897 4.337 4.337 0 00-1.057-4.794c-.656-.618-1.499-.973-2.375-1.087a4.357 4.357 0 00-1.359-3.445c-1.158-1.09-2.881-1.366-4.36-.896a4.305 4.305 0 00-1.11-1.745c-1.618-1.522-4.335-1.486-5.957.014l-1.682-1.4a3.071 3.071 0 01-.946-1.38l8.31-12.895c2.289.06 4.134-.564 6.708.702a5.28 5.28 0 00-3.695 6.346c.698 2.777 3.462 4.473 6.334 3.822h.017l6.153-1.377a1.755 1.755 0 011.53.332l11.466 9.97c.587.545.623 1.466.08 2.055zm6.968-8.686l-5.318 4.27c-13.363-12.294-1.017-1.019-11.373-9.878-1.139-.914-2.663-1.245-4.034-.894l-6.108 1.365c-.003 0-.004.002-.006.003h-.005c-1.466.332-2.607-.599-2.882-1.688-.313-1.259.451-2.542 1.687-2.856 1.803-.434-.033-.005 7.472-1.792.04-.007.077.004.116-.006l.013-.004 1.146-.295c2.08-.5 1.825-.659 3.212-.127 3.046 1.165 5.947 1.433 9.19.275l3.47-1.611 6.235 12.117c-2.4.912-2.494.864-2.815 1.12zm11.014-.921l-2.517 1.295c-.702.363-1.603.066-1.96-.628L54.2 7.878c-.002-.005 0-.01-.003-.014-.003-.007-.01-.01-.013-.017l-.396-.772a1.46 1.46 0 01.628-1.962l2.518-1.295a1.453 1.453 0 011.961.63l8.383 16.296a1.46 1.46 0 01-.628 1.962z"/></mask><path d="M61.484 3.115a4.363 4.363 0 00-5.88-1.885l-2.519 1.295c-1.936.995-2.798 3.242-2.138 5.246l-3.3 1.537c-2.462.871-4.741.584-7.052-.303-2.937-1.125-3.621-.105-4.864-.002l-.012.003-4.923 1.175-1.76-1.11c-3.52-2.2-6.704-1.497-7.598-1.564a4.306 4.306 0 00-1.955-4.194l-2.381-1.535a4.367 4.367 0 00-6.038 1.306L1.15 18.47a4.368 4.368 0 001.305 6.038l2.38 1.533c1.465.944 3.404.982 4.98-.21.298.418.63.81 1.03 1.144l1.532 1.276-.178.19a3.631 3.631 0 00.17 5.106l1.077 1.014a3.602 3.602 0 002.285.965c.154.731.52 1.425 1.105 1.975l.835.785a3.774 3.774 0 002.593 1.029c.058 0 .114-.016.172-.018a3.773 3.773 0 001.051 1.76l.796.75c.601.566 1.362.9 2.173.994.135.48.388.917.759 1.267l2.314 2.175c.515.485 1.19.753 1.9.753.758 0 1.492-.317 2.015-.87 1.646 1.53 1.836 1.702 2.471 1.996a4.37 4.37 0 005.053-1.003 4.328 4.328 0 001.138-2.918c1.042-.094 2.058-.537 2.821-1.365a4.345 4.345 0 001.14-2.904 4.33 4.33 0 002.806-1.363 4.311 4.311 0 001.135-2.92c1.035-.098 2.042-.54 2.8-1.363a4.358 4.358 0 001.047-3.891l5.42-4.35 2.549-.94a4.356 4.356 0 005.642 1.485l2.516-1.295a4.375 4.375 0 001.887-5.883L61.484 3.115zm-55.07 20.48l-2.38-1.534a1.454 1.454 0 01-.436-2.013L13.513 4.66a1.455 1.455 0 012.012-.436l2.381 1.535c.679.439.87 1.339.434 2.013L8.425 23.158c-.419.653-1.356.861-2.011.436zm7.95 7.833a.712.712 0 01-.033-1.001l1.975-2.119a1.448 1.448 0 112.106 1.99c-.136.146-2.101 2.255-1.966 2.108a.71.71 0 01-1.005.034l-1.076-1.012zm5.3 4.738l-.835-.785a.87.87 0 01-.069-1.187l3.038-3.247a1.43 1.43 0 012.047-.04c.576.542.603 1.45.063 2.026l-3.006 3.195a.896.896 0 01-1.238.038zm3.818 2.77a.885.885 0 01-.062-1.235l2.09-2.22a1.445 1.445 0 012.045-.063c.59.553.608 1.473.067 2.044l-2.07 2.188a.925.925 0 01-1.274.036l-.796-.75zm5.94 5.091l-2.11-1.985.821-.871a1.447 1.447 0 012.048-.04c.278.262.439.617.45 1 .012.382-.126.746-.389 1.026l-.82.87zm19.246-11.714c-.509.55-1.4.674-2.084.054h0l-4.435-3.8a1.456 1.456 0 10-1.894 2.211l4.387 3.76.011.008c.586.543.622 1.462.08 2.05-.538.585-1.447.623-2.013.116-.006-.006-.01-.014-.018-.02l-3.784-3.651c-.506-.486-1.446-.594-2.057.036h0l-.002.001c-.595.616-.472 1.565.036 2.058h.001l.021.02 3.789 3.664.013.01c.57.544.605 1.45.068 2.032-.54.589-1.462.627-2.03.107l-2.77-2.675c-.531-.516-1.685-.843-2.385-.081a1.456 1.456 0 00.081 2.057l3.06 2.823a1.455 1.455 0 01-1.603 2.386c-.206-.095-.267-.143-1.78-1.546l-.139-.13c.225-.552.34-1.147.322-1.76a4.34 4.34 0 00-1.39-3.055 4.097 4.097 0 00-1.543-.897 4.337 4.337 0 00-1.057-4.794c-.656-.618-1.499-.973-2.375-1.087a4.357 4.357 0 00-1.359-3.445c-1.158-1.09-2.881-1.366-4.36-.896a4.305 4.305 0 00-1.11-1.745c-1.618-1.522-4.335-1.486-5.957.014l-1.682-1.4a3.071 3.071 0 01-.946-1.38l8.31-12.895c2.289.06 4.134-.564 6.708.702a5.28 5.28 0 00-3.695 6.346c.698 2.777 3.462 4.473 6.334 3.822h.017l6.153-1.377a1.755 1.755 0 011.53.332l11.466 9.97c.587.545.623 1.466.08 2.055zm6.968-8.686l-5.318 4.27c-13.363-12.294-1.017-1.019-11.373-9.878-1.139-.914-2.663-1.245-4.034-.894l-6.108 1.365c-.003 0-.004.002-.006.003h-.005c-1.466.332-2.607-.599-2.882-1.688-.313-1.259.451-2.542 1.687-2.856 1.803-.434-.033-.005 7.472-1.792.04-.007.077.004.116-.006l.013-.004 1.146-.295c2.08-.5 1.825-.659 3.212-.127 3.046 1.165 5.947 1.433 9.19.275l3.47-1.611 6.235 12.117c-2.4.912-2.494.864-2.815 1.12zm11.014-.921l-2.517 1.295c-.702.363-1.603.066-1.96-.628L54.2 7.878c-.002-.005 0-.01-.003-.014-.003-.007-.01-.01-.013-.017l-.396-.772a1.46 1.46 0 01.628-1.962l2.518-1.295a1.453 1.453 0 011.961.63l8.383 16.296a1.46 1.46 0 01-.628 1.962z" fill="#000" stroke="#fff" stroke-width="2.4" mask="url(#path-1-inside-1_1_754)"/></svg>