<svg width="85" height="45" fill="none" xmlns="http://www.w3.org/2000/svg"><path d="M16.397 35.713v-5.68 5.68zm0 0h0v.55h.55l5.615-.001c.502-3.425 3.438-6.09 6.972-6.09 3.535 0 6.47 2.666 6.972 6.09h18.081V3.515h-.55l-37.64 32.199zm61.746-25.03h.001-.001l5.382 13.337s0 0 0 0a.9.9 0 01.064.335v13.35a.888.888 0 01-.883.883s0 0 0 0h-6.964l-.108.41c-.742 2.808-3.274 4.896-6.266 4.896s-5.53-2.09-6.274-4.897l-.108-.41h-27.07l-.108.41c-.745 2.809-3.282 4.897-6.274 4.897-2.993 0-5.53-2.09-6.274-4.897l-.109-.41h-8.195s0 0 0 0a.888.888 0 01-.884-.882V30.03a.885.885 0 01.258-.628l-.39-.388.39.388a.888.888 0 011.517.629v6.782h.55l6.166-.001h.475l.069-.47c.463-3.166 3.176-5.62 6.427-5.62 3.251 0 5.964 2.455 6.428 5.62l.068.47h19.107V2.965H14.956a.888.888 0 01-.883-.882.888.888 0 01.883-.882h41.072s0 0 0 0a.888.888 0 01.886.884v8.041h20.412c.36.004.683.224.817.557zm-70.33.502h0a.888.888 0 01.882-.891s0 0 0 0h21.691a.887.887 0 01.63.26h.001a.89.89 0 01.26.63v.001a.89.89 0 01-.262.626h0a.887.887 0 01-.63.258H8.696a.887.887 0 01-.883-.884zm49.652.716h-.55v11.572h24.474l-.305-.755-4.222-10.473-.139-.344H57.465zM2.21 19.46h28.176a.882.882 0 01.629.258h0c.167.165.26.39.262.626a.884.884 0 01-.262.624h0a.884.884 0 01-.628.258H2.208a.885.885 0 01-.628-.257l-.387.39.387-.39a.89.89 0 01-.262-.625c0-.235.095-.46.262-.626h0a.887.887 0 01.63-.259zm29.193-.132c-.27-.27-.637-.42-1.02-.419l1.444 1.435a1.437 1.437 0 00-.424-1.016zm26.063 5.919h-.55v11.565h5.96l.07-.47c.462-3.166 3.173-5.62 6.424-5.62 3.25 0 5.954 2.453 6.416 5.62l.068.47h5.962V25.248h-24.35zm-28.037 7.249v0h-.014c-2.561.065-4.599 2.169-4.599 4.803 0 2.675 2.1 4.818 4.72 4.818 2.62 0 4.72-2.144 4.72-4.818 0-2.676-2.102-4.803-4.72-4.803h-.108zm39.835 0v0h-.014c-2.562.065-4.6 2.169-4.6 4.803 0 2.675 2.1 4.818 4.72 4.818 2.62 0 4.722-2.143 4.722-4.818 0-2.677-2.104-4.803-4.722-4.803h-.106z" fill="#000" stroke="#fff" stroke-width="1.1"/></svg>