<svg width="23" height="23" fill="none" xmlns="http://www.w3.org/2000/svg"><g clip-path="url(#clip0_1_275)" fill="#FFC501"><path d="M14.497 12.117l-1.874 1.88c-.76.763-2.097.78-2.873 0l-1.874-1.88-6.73 6.752c.25.116.526.186.82.186h18.442c.293 0 .57-.07.82-.185l-6.73-6.753z"/><path d="M20.408 3.32H1.966c-.294 0-.57.07-.82.185l7.192 7.216.001.002 2.34 2.347c.248.248.768.248 1.016 0l2.338-2.346.001-.002h.002l7.192-7.217a1.945 1.945 0 00-.82-.185zM.208 4.422c-.13.262-.21.553-.21.865v11.8c0 .311.08.602.21.864l6.742-6.764L.208 4.422zm21.957 0l-6.742 6.765 6.742 6.764c.13-.262.21-.553.21-.865V5.287c0-.312-.08-.603-.21-.865z"/></g><defs><clipPath id="clip0_1_275"><path fill="#fff" d="M0 0h22.375v22.375H0z"/></clipPath></defs></svg>