<svg width="18" height="18" fill="none" xmlns="http://www.w3.org/2000/svg"><g clip-path="url(#clip0_1_347)" fill="#fff"><path d="M11.664 9.748l-1.508 1.512c-.611.614-1.687.627-2.311 0L6.337 9.748.922 15.18c.202.093.424.149.66.149h14.836c.237 0 .459-.056.66-.15l-5.414-5.431z"/><path d="M16.418 2.67H1.582c-.236 0-.458.057-.66.15l5.786 5.805h.002v.002l1.881 1.887c.2.2.619.2.818 0l1.881-1.887.001-.001.001-.001 5.786-5.805a1.565 1.565 0 00-.66-.15zm-16.25.887A1.554 1.554 0 000 4.253v9.492c0 .251.063.485.168.696l5.424-5.442L.168 3.557zm17.662 0L12.408 9l5.424 5.442c.104-.21.168-.445.168-.696V4.253c0-.25-.064-.485-.168-.696z"/></g><defs><clipPath id="clip0_1_347"><path fill="#fff" d="M0 0h18v18H0z"/></clipPath></defs></svg>