<svg width="187" height="60" fill="none" xmlns="http://www.w3.org/2000/svg"><path d="M.066 28.659H18.4v12.359H.066v-12.36zm19.741 0H38.14v12.359H19.807v-12.36zM.066 14.58H18.4v12.35H.066V14.58zm19.741 0H38.14v12.35H19.807V14.58z" fill="#fff"/><path d="M0 42.227h38.358v1.736H0v-1.736z" fill="#FFC501"/><path d="M.033 43.915h5.831v2.968H.033v-2.968zm32.477 0h5.848v2.968h-5.847v-2.968zm-15.04 0h3.543v2.968H17.47v-2.968z" fill="#FFC501"/><path d="M56.274 47.132l.553-32.007h6.046l4.544 22.168 4.741-22.168h5.848l.593 32.007h-4.347l-.474-22.247-4.544 22.247h-3.516l-4.624-22.326-.434 22.326h-4.386zm35.744.434c-2.265 0-4.07-.421-5.413-1.264s-2.305-2.055-2.884-3.636c-.58-1.58-.87-3.45-.87-5.61V25.083c0-2.16.29-4.004.87-5.532.58-1.554 1.54-2.74 2.884-3.556 1.343-.817 3.148-1.225 5.413-1.225 2.319 0 4.136.408 5.453 1.225 1.344.816 2.305 2.002 2.885 3.556.606 1.528.909 3.372.909 5.532v12.012c0 2.134-.303 3.99-.909 5.571-.58 1.555-1.541 2.766-2.885 3.636-1.317.843-3.134 1.264-5.453 1.264zm0-4.307c.975 0 1.686-.21 2.134-.632.474-.422.79-1.001.948-1.739a11.51 11.51 0 00.238-2.41V23.739c0-.895-.08-1.699-.237-2.41-.159-.711-.475-1.264-.949-1.66-.448-.421-1.159-.632-2.134-.632-.922 0-1.62.211-2.094.633-.474.395-.79.948-.948 1.659-.158.711-.237 1.515-.237 2.41v14.739c0 .87.066 1.673.197 2.41.158.738.474 1.317.949 1.739.474.421 1.185.632 2.133.632zm13.651 3.873V15.125h5.809V28.52h6.52V15.125h5.848v32.007h-5.848V32.67h-6.52v14.462h-5.809zm23.074 0V15.125h13.435v4.11h-7.587v9.207h5.967v4.07h-5.967v10.59h7.666v4.03h-13.514zm16.98 0V15.125h5.809V28.56h1.185l5.177-13.435h5.808l-6.085 15.095 6.559 16.912h-5.927l-5.532-14.74h-1.185v14.74h-5.809zm29.913.434c-2.345 0-4.189-.46-5.532-1.383-1.317-.922-2.239-2.173-2.766-3.754-.527-1.607-.79-3.45-.79-5.532V25.478c0-2.186.263-4.083.79-5.69.527-1.607 1.449-2.845 2.766-3.714 1.343-.87 3.187-1.304 5.532-1.304 2.213 0 3.938.382 5.176 1.146 1.265.737 2.16 1.804 2.687 3.2.527 1.396.79 3.017.79 4.86v2.687h-5.611v-2.766c0-.895-.052-1.712-.158-2.45-.079-.737-.329-1.316-.75-1.738-.396-.448-1.094-.672-2.095-.672-1.001 0-1.738.237-2.212.712-.448.447-.738 1.066-.87 1.857a15.54 15.54 0 00-.197 2.607v13.91c0 1.158.092 2.12.276 2.884.185.737.514 1.304.988 1.699.501.369 1.172.553 2.015.553.975 0 1.66-.224 2.055-.672.422-.474.685-1.093.79-1.857.106-.764.158-1.62.158-2.568v-2.885h5.611v2.569c0 1.896-.25 3.582-.75 5.058-.501 1.448-1.383 2.594-2.648 3.437-1.238.817-2.99 1.225-5.255 1.225z" fill="#fff"/><mask id="mask0_1_318" style="mask-type:alpha" maskUnits="userSpaceOnUse" x="53" y="30" width="134" height="19"><path fill="#FFC501" d="M53.942 30.099H187V48.08H53.942z"/></mask><g mask="url(#mask0_1_318)"><path d="M56.274 47.132l.553-32.007h6.046l4.544 22.168 4.741-22.168h5.848l.593 32.007h-4.347l-.474-22.247-4.544 22.247h-3.516l-4.624-22.326-.434 22.326h-4.386zm35.744.434c-2.265 0-4.07-.421-5.413-1.264s-2.305-2.055-2.884-3.636c-.58-1.58-.87-3.45-.87-5.61V25.083c0-2.16.29-4.004.87-5.532.58-1.554 1.54-2.74 2.884-3.556 1.343-.817 3.148-1.225 5.413-1.225 2.319 0 4.136.408 5.453 1.225 1.344.816 2.305 2.002 2.885 3.556.606 1.528.909 3.372.909 5.532v12.012c0 2.134-.303 3.99-.909 5.571-.58 1.555-1.541 2.766-2.885 3.636-1.317.843-3.134 1.264-5.453 1.264zm0-4.307c.975 0 1.686-.21 2.134-.632.474-.422.79-1.001.948-1.739a11.51 11.51 0 00.238-2.41V23.739c0-.895-.08-1.699-.237-2.41-.159-.711-.475-1.264-.949-1.66-.448-.421-1.159-.632-2.134-.632-.922 0-1.62.211-2.094.633-.474.395-.79.948-.948 1.659-.158.711-.237 1.515-.237 2.41v14.739c0 .87.066 1.673.197 2.41.158.738.474 1.317.949 1.739.474.421 1.185.632 2.133.632zm13.651 3.873V15.125h5.809V28.52h6.52V15.125h5.848v32.007h-5.848V32.67h-6.52v14.462h-5.809zm23.074 0V15.125h13.435v4.11h-7.587v9.207h5.967v4.07h-5.967v10.59h7.666v4.03h-13.514zm16.98 0V15.125h5.809V28.56h1.185l5.177-13.435h5.808l-6.085 15.095 6.559 16.912h-5.927l-5.532-14.74h-1.185v14.74h-5.809zm29.913.434c-2.345 0-4.189-.46-5.532-1.383-1.317-.922-2.239-2.173-2.766-3.754-.527-1.607-.79-3.45-.79-5.532V25.478c0-2.186.263-4.083.79-5.69.527-1.607 1.449-2.845 2.766-3.714 1.343-.87 3.187-1.304 5.532-1.304 2.213 0 3.938.382 5.176 1.146 1.265.737 2.16 1.804 2.687 3.2.527 1.396.79 3.017.79 4.86v2.687h-5.611v-2.766c0-.895-.052-1.712-.158-2.45-.079-.737-.329-1.316-.75-1.738-.396-.448-1.094-.672-2.095-.672-1.001 0-1.738.237-2.212.712-.448.447-.738 1.066-.87 1.857a15.54 15.54 0 00-.197 2.607v13.91c0 1.158.092 2.12.276 2.884.185.737.514 1.304.988 1.699.501.369 1.172.553 2.015.553.975 0 1.66-.224 2.055-.672.422-.474.685-1.093.79-1.857.106-.764.158-1.62.158-2.568v-2.885h5.611v2.569c0 1.896-.25 3.582-.75 5.058-.501 1.448-1.383 2.594-2.648 3.437-1.238.817-2.99 1.225-5.255 1.225z" fill="#FFC501"/></g></svg>