<svg width="20" height="19" fill="none" xmlns="http://www.w3.org/2000/svg"><path d="M12.558 18.076c-.59 0-1.174-.169-1.672-.488A31.602 31.602 0 01.396 6.472a3.132 3.132 0 01.517-3.734L2.844.808a1.947 1.947 0 012.75 0l1.702 1.7a1.946 1.946 0 010 2.75L6.289 6.266a25.655 25.655 0 005.122 5.33l1.111-1.11a1.946 1.946 0 012.75 0l1.704 1.704c.756.756.758 1.988.003 2.746l-2.206 2.218a3.141 3.141 0 01-2.215.923zM17.927 1.12H11.87a.586.586 0 00-.738-.889l-1.677.968a.586.586 0 000 1.016l1.677.969a.584.584 0 00.801-.215.586.586 0 00-.063-.675h6.057a.9.9 0 010 1.798h-4.811a.586.586 0 000 1.173h4.811c1.143 0 2.072-.93 2.072-2.072 0-1.143-.93-2.072-2.072-2.072z" fill="#312C21"/></svg>