<svg width="32" height="61" viewBox="0 0 32 61" fill="none" xmlns="http://www.w3.org/2000/svg">
<path d="M0.673324 32.1739L28.0049 60.3102C28.9004 61.2315 30.3502 61.23 31.2442 60.3054C32.1375 59.381 32.1352 57.8835 31.2396 56.9615L5.53486 30.4999L31.2405 4.03838C32.136 3.11624 32.1383 1.61972 31.2451 0.695188C30.797 0.231733 30.2099 3.27826e-06 29.6228 3.27826e-06C29.0372 3.27826e-06 28.4524 0.230183 28.005 0.690421L0.673324 28.826C0.242026 29.2689 4.74186e-06 29.8718 4.74186e-06 30.4999C4.74186e-06 31.128 0.242719 31.7301 0.673324 32.1739Z" fill="white"/>
</svg>
