<svg width="58" height="54" viewBox="0 0 58 54" fill="none" xmlns="http://www.w3.org/2000/svg">
<path d="M57.459 28.7008L57.4582 28.6993C57.2914 28.3834 56.9034 28.2596 56.588 28.4238C56.588 28.4238 56.588 28.4239 56.588 28.4239L45.9674 33.9602L45.4878 34.2103V33.6694V31.7603V31.5614L45.6642 31.4694L57.1836 25.4673L57.1837 25.4672C57.5053 25.2998 57.6265 24.9141 57.459 24.6009L57.4564 24.596L57.4565 24.596C57.2994 24.2898 56.9163 24.1622 56.587 24.3308C56.5868 24.331 56.5866 24.3311 56.5863 24.3312L45.9673 29.8603L45.4878 30.11V29.5694V27.7657V27.5667L45.6642 27.4748L57.1836 21.4726L57.1909 21.4688L57.1909 21.4689C57.4053 21.3639 57.5364 21.1434 57.5321 20.8966C57.5278 20.6519 57.3884 20.4294 57.1653 20.3194C57.165 20.3193 57.1647 20.3192 57.1645 20.3191L39.3233 11.7069L39.319 11.7048L39.319 11.7048C39.1559 11.6231 38.9473 11.6222 38.7605 11.7078L0.755655 30.2839L0.751299 30.286L0.751284 30.286C0.535937 30.3873 0.395092 30.6098 0.395092 30.8613C0.395092 31.1018 0.533035 31.3217 0.759307 31.441L19.7506 40.6608C19.751 40.661 19.7514 40.6612 19.7518 40.6614C19.8561 40.7108 19.9516 40.7339 20.0363 40.7339C20.1323 40.7339 20.2333 40.7084 20.3197 40.659L20.3309 40.6527L20.331 40.6529L32.5912 34.27L33.0706 34.0204V34.5609V36.3716V36.5706L32.8942 36.6625L20.1736 43.288L20.0272 43.3643L19.8788 43.2921L1.31396 34.2721L1.31083 34.2706C1.00939 34.1202 0.62016 34.2509 0.460087 34.5672C0.307791 34.8933 0.442295 35.2701 0.757918 35.4194L0.761075 35.4209L0.761066 35.4209L19.7566 44.6561C19.757 44.6563 19.7574 44.6565 19.7578 44.6567C19.8446 44.6977 19.939 44.7164 20.0424 44.7164C20.1375 44.7164 20.245 44.6912 20.3427 44.6457L32.597 38.2525L33.0767 38.0023V38.5433V40.4524V40.6514L32.9002 40.7433L20.1796 47.3688L20.0334 47.445L19.885 47.373L1.32016 38.3662L1.31483 38.3637L1.31486 38.3636C1.00757 38.2076 0.619497 38.3385 0.459649 38.6672L0.45964 38.6672C0.30816 38.9786 0.440344 39.3694 0.757507 39.5194L0.760496 39.5208L0.760489 39.5208L19.7562 48.7428C19.7566 48.7429 19.7569 48.7431 19.7572 48.7432C19.8616 48.7927 19.9572 48.8158 20.0419 48.8158C20.1379 48.8158 20.2389 48.7904 20.3254 48.741L20.3365 48.7346L20.3366 48.7348L32.5968 42.3519L33.0763 42.1023V42.6429V44.4206V44.6196L32.8998 44.7115L20.1792 51.337L20.0329 51.4132L19.8845 51.3412L1.32448 42.3367C1.32377 42.3364 1.32306 42.336 1.32235 42.3357C0.999757 42.1869 0.613573 42.3185 0.459239 42.6358C0.303346 42.9564 0.435631 43.338 0.760078 43.4959L57.459 28.7008ZM57.459 28.7008C57.6264 29.014 57.5053 29.3996 57.1838 29.567C57.1837 29.5671 57.1837 29.5671 57.1836 29.5671L45.6643 35.5564L45.4876 35.6483V35.8474V37.6379V38.1791L45.9674 37.9287L56.5881 32.3855L56.5909 32.384C56.8993 32.2192 57.2838 32.3393 57.4598 32.6641C57.6261 32.9712 57.5039 33.3603 57.1868 33.5208L57.1834 33.5226L45.139 39.8007L45.1387 39.8008L20.3363 52.7039L20.3362 52.7037L20.3249 52.7101C20.2385 52.7595 20.1375 52.785 20.0415 52.785C19.9267 52.785 19.8468 52.769 19.7785 52.7298L19.7686 52.7241L19.7583 52.7191L0.760288 43.4961L57.459 28.7008ZM39.1883 13.0643L39.0447 12.995L38.9015 13.065L28.7595 18.0244L28.1586 18.3182L28.7588 18.6134L44.6212 26.413L44.7701 26.4862L44.9173 26.4096L54.8754 21.2274L55.4553 20.9256L54.8667 20.6411L39.1883 13.0643ZM19.8852 39.2914L20.0337 39.3635L20.1801 39.2873L31.7198 33.2782L32.2945 32.979L31.7131 32.693L15.4314 24.6833L15.2872 24.6124L15.1427 24.6829L3.11803 30.5542L2.51293 30.8497L3.11859 31.144L19.8852 39.2914ZM34.5458 33.2606L34.3692 33.3525L34.3692 33.5516L34.369 43.4175L34.369 43.9585L34.8487 43.7084L44.0192 38.9266L44.1956 38.8347V38.6358V27.8445V27.6403L44.0124 27.5502L26.8451 19.1008L26.7007 19.0297L26.5562 19.1004L17.3528 23.6003L16.7519 23.8941L17.352 24.1893L33.5681 32.1665L33.7169 32.2397L33.864 32.1633L40.1816 28.8833L40.1836 28.8822C40.4924 28.7191 40.8773 28.8371 41.0442 29.1552C41.2065 29.4772 41.0801 29.8614 40.7729 30.0192L40.7713 30.02L34.5458 33.2606Z" fill="black" stroke="white" stroke-width="0.656"/>
<path d="M5.29318 7.36484V7.36491C5.29318 8.0299 5.66607 8.66391 6.2632 9.2233C6.86404 9.78616 7.72516 10.3066 8.78885 10.7507C10.9184 11.6397 13.9148 12.2454 17.4292 12.2454C20.9437 12.2454 23.9401 11.6397 26.0697 10.7507C27.1333 10.3066 27.9944 9.78616 28.5952 9.2233C29.1923 8.6639 29.5652 8.02989 29.5652 7.36491C29.5652 6.69991 29.1923 6.0659 28.5952 5.50651C27.9943 4.94365 27.1332 4.42319 26.0695 3.97913C23.94 3.09009 20.9436 2.48438 17.4292 2.48438C13.918 2.48438 10.9217 3.08999 8.79148 3.97893C7.72745 4.42295 6.86576 4.94337 6.26441 5.50621C5.66679 6.06556 5.29333 6.69963 5.29318 7.36484ZM30.8573 7.37135C30.8573 9.02681 29.5288 10.566 27.107 11.7095C24.703 12.8446 21.3148 13.5379 17.4292 13.5379C13.5435 13.5379 10.1568 12.8446 7.75435 11.7096C5.33414 10.5661 4.00696 9.02696 4.00696 7.37135C4.00696 5.71574 5.33416 4.17658 7.7544 3.03313C10.1569 1.89806 13.5436 1.20483 17.4292 1.20483C21.3178 1.20483 24.706 1.89807 27.1092 3.03314C29.5301 4.1766 30.8573 5.71576 30.8573 7.37135Z" fill="black" stroke="white" stroke-width="0.656"/>
<path d="M5.38875 12.3605L5.38876 12.3605C5.60158 12.8292 6.09632 13.2521 6.74808 13.6223C7.41153 13.9991 8.28618 14.3484 9.32948 14.6471C11.4175 15.2447 14.2167 15.6494 17.4368 15.6494C20.6602 15.6494 23.4595 15.2446 25.546 14.6469C26.5885 14.3482 27.4619 13.9988 28.124 13.6219C28.774 13.2519 29.2672 12.829 29.4782 12.3599C29.6272 12.0325 30.0049 11.8893 30.3323 12.0329C30.6376 12.1695 30.7864 12.5253 30.6693 12.8412L30.6498 12.8847C30.3615 13.5283 29.765 14.1136 28.9044 14.6296C28.0467 15.1439 26.9524 15.5736 25.7114 15.9173C23.2299 16.6046 20.2083 16.9351 17.4355 16.9349H17.4355C14.6632 16.9349 11.6436 16.6042 9.16217 15.917C7.92125 15.5733 6.82651 15.1436 5.96741 14.6292C5.1055 14.1133 4.50651 13.5277 4.21484 12.8835L4.21484 12.8835L4.21414 12.882C4.06734 12.5622 4.2102 12.1824 4.53364 12.0401L4.53366 12.0401L4.53859 12.0378C4.85712 11.8913 5.23974 12.0322 5.38875 12.3605Z" fill="black" stroke="white" stroke-width="0.656"/>
<path d="M4.53689 15.7054L4.53689 15.7054L4.53859 15.7046C4.85428 15.5594 5.2388 15.7029 5.38855 16.0278C5.60148 16.4978 6.09585 16.9216 6.74731 17.2925C7.41083 17.6703 8.28556 18.0203 9.3289 18.3193C11.417 18.9178 14.2163 19.3225 17.4364 19.3225C17.7819 19.3225 18.0609 19.5904 18.0785 19.9313V19.9655C18.0785 20.3212 17.7875 20.6084 17.4358 20.6081H17.4355C14.6632 20.6081 11.6436 20.2774 9.16217 19.5901C7.92125 19.2464 6.82651 18.8167 5.96741 18.3024C5.1055 17.7864 4.50651 17.2008 4.21484 16.5567L4.21482 16.5566C4.0671 16.2306 4.20913 15.8538 4.53689 15.7054Z" fill="black" stroke="white" stroke-width="0.656"/>
<path d="M11.3935 23.358V23.358C11.7067 23.358 11.9788 23.1327 12.0268 22.8116L11.3935 23.358ZM11.3935 23.358C11.3685 23.358 11.3456 23.355 11.2966 23.3481C9.91238 23.1395 8.35834 22.8205 7.03482 22.3364C5.69279 21.8455 4.6665 21.2124 4.23583 20.4256L4.23586 20.4256L4.23383 20.422C4.06297 20.119 4.17678 19.723 4.49133 19.5528C4.80491 19.3831 5.19103 19.4947 5.36663 19.8095C5.46519 19.9903 5.65771 20.1755 5.91689 20.3565C6.18478 20.5435 6.55149 20.7448 7.03211 20.947C7.99366 21.3515 9.43037 21.7674 11.4896 22.0753L11.4901 22.0753C11.8374 22.1268 12.0795 22.4542 12.0268 22.8113L11.3935 23.358Z" fill="black" stroke="white" stroke-width="0.656"/>
<path d="M5.32521 23.3446L5.3383 23.364L5.35401 23.3813L5.35408 23.3814L5.35945 23.3873L5.3651 23.3929C5.34578 23.3736 5.40592 23.4431 5.49658 23.517C5.58958 23.5929 5.72833 23.6889 5.93433 23.7983C6.34499 24.0165 7.02992 24.2919 8.16847 24.5681C8.52213 24.6572 8.72943 25.0066 8.64418 25.3432L8.64387 25.3444C8.56999 25.6409 8.30367 25.837 8.01767 25.837C7.95862 25.837 7.91406 25.8324 7.86752 25.8207L7.86752 25.8207L7.86485 25.8201C6.87147 25.5806 6.08367 25.3121 5.48535 25.0153C4.88508 24.7175 4.49601 24.4013 4.27365 24.0772L4.27367 24.0772L4.27164 24.0743C4.06821 23.7846 4.14208 23.3811 4.43032 23.1827C4.73232 22.9792 5.12936 23.0548 5.32521 23.3446Z" fill="black" stroke="white" stroke-width="0.656"/>
<mask id="path-7-inside-1_1_743" fill="white">
<path d="M29.8543 24.1968C32.0823 23.2702 34.1771 23.2139 34.5331 24.0701C34.8891 24.9267 33.3717 26.3717 31.1436 27.2984C28.9156 28.2246 26.8208 28.2813 26.4644 27.4247C26.1084 26.5681 27.6262 25.1231 29.8543 24.1968"/>
</mask>
<path d="M29.8543 24.1968C32.0823 23.2702 34.1771 23.2139 34.5331 24.0701C34.8891 24.9267 33.3717 26.3717 31.1436 27.2984C28.9156 28.2246 26.8208 28.2813 26.4644 27.4247C26.1084 26.5681 27.6262 25.1231 29.8543 24.1968" fill="black"/>
<path d="M34.5331 24.0701L35.1388 23.8183L35.1388 23.8182L34.5331 24.0701ZM31.1436 27.2984L31.3954 27.9042L31.3956 27.9041L31.1436 27.2984ZM26.4644 27.4247L25.8586 27.6765L25.8587 27.6767L26.4644 27.4247ZM30.1062 24.8025C31.1653 24.362 32.1658 24.1409 32.9134 24.1207C33.2895 24.1105 33.566 24.1523 33.7441 24.216C33.8306 24.247 33.8798 24.2781 33.9049 24.2987C33.9169 24.3085 33.9227 24.3154 33.925 24.3185C33.9263 24.3201 33.9268 24.321 33.927 24.3214C33.9272 24.3217 33.9273 24.3219 33.9273 24.3219L35.1388 23.8182C34.9543 23.3746 34.5707 23.1183 34.1861 22.9807C33.8018 22.8432 33.3485 22.7964 32.878 22.8091C31.9322 22.8347 30.7713 23.105 29.6023 23.5911L30.1062 24.8025ZM33.9273 24.3218C33.9273 24.3219 33.9274 24.3221 33.9275 24.3225C33.9276 24.3229 33.9279 24.324 33.9282 24.326C33.9287 24.3299 33.9295 24.3389 33.928 24.3544C33.9249 24.3867 33.9123 24.4435 33.8732 24.5267C33.7928 24.6979 33.6274 24.9234 33.3549 25.1829C32.8134 25.6987 31.9509 26.2522 30.8917 26.6927L31.3956 27.9041C32.5644 27.4179 33.5747 26.7855 34.2598 26.133C34.6007 25.8083 34.8872 25.454 35.0607 25.0844C35.2344 24.7146 35.3232 24.2619 35.1388 23.8183L33.9273 24.3218ZM30.8918 26.6927C29.8327 27.1329 28.8321 27.3541 28.0844 27.3743C27.7083 27.3845 27.4318 27.3427 27.2536 27.2789C27.167 27.248 27.1178 27.2168 27.0927 27.1962C27.0807 27.1863 27.0748 27.1794 27.0724 27.1763C27.0712 27.1747 27.0706 27.1737 27.0704 27.1733C27.0701 27.1729 27.0701 27.1728 27.07 27.1727L25.8587 27.6767C26.0433 28.1202 26.4269 28.3766 26.8116 28.5142C27.196 28.6518 27.6493 28.6986 28.1199 28.6858C29.0657 28.6603 30.2266 28.39 31.3954 27.9042L30.8918 26.6927ZM27.0701 27.1729C27.0701 27.1729 27.07 27.1727 27.0699 27.1723C27.0698 27.1719 27.0695 27.1708 27.0693 27.1688C27.0687 27.1649 27.068 27.1559 27.0695 27.1405C27.0725 27.1082 27.0852 27.0514 27.1243 26.9682C27.2047 26.7969 27.3701 26.5715 27.6426 26.312C28.1843 25.7962 29.0469 25.2429 30.1061 24.8026L29.6024 23.5911C28.4336 24.077 27.4232 24.7093 26.7379 25.3618C26.397 25.6864 26.1104 26.0407 25.9368 26.4103C25.7631 26.78 25.6742 27.2328 25.8586 27.6765L27.0701 27.1729Z" fill="white" mask="url(#path-7-inside-1_1_743)"/>
</svg>
