<svg width="71" height="49" viewBox="0 0 71 49" fill="none" xmlns="http://www.w3.org/2000/svg">
<mask id="path-1-inside-1_1_754" fill="white">
<path d="M61.4841 3.11524C60.3654 0.941773 57.7232 0.137983 55.6032 1.22972L53.085 2.52515C51.1491 3.52045 50.2874 5.76657 50.9466 7.77091L47.6473 9.30751C45.1854 10.1794 42.9058 9.8915 40.5948 9.00536C37.6581 7.88006 36.9737 8.90025 35.7305 9.00333C35.7264 9.00435 35.7229 9.00536 35.7193 9.00638C34.3101 9.34255 31.9138 9.91435 30.7961 10.181L29.0355 9.0719C25.5154 6.87152 22.3319 7.5743 21.4376 7.50683C21.6509 5.73506 20.8313 4.18117 19.4831 3.31277L17.1015 1.7776C15.0936 0.48268 12.3844 1.0367 11.0642 3.08371L1.1501 18.4705C-0.156011 20.4992 0.424947 23.1998 2.45517 24.5094L4.83534 26.042C6.29992 26.986 8.23926 27.0241 9.81499 25.8328C10.1126 26.2497 10.4452 26.6427 10.8453 26.9763L12.3774 28.2515L12.1991 28.4429C10.8469 29.8968 10.9225 32.1876 12.3683 33.548L13.4458 34.5616C14.072 35.1507 14.8788 35.4802 15.731 35.5265C15.8848 36.2582 16.251 36.9524 16.836 37.5018L17.6708 38.2869C18.3762 38.9501 19.2974 39.3157 20.2642 39.3157C20.3221 39.3157 20.3779 39.3005 20.4358 39.298C20.6197 39.9637 20.9701 40.5726 21.487 41.058L22.2833 41.8076C22.884 42.3738 23.6453 42.7084 24.4557 42.8023C24.5908 43.2812 24.8437 43.7195 25.2149 44.0688L27.5285 46.2437C28.0444 46.7292 28.7188 46.9968 29.4282 46.9968C30.1868 46.9968 30.9211 46.68 31.4442 46.1275C33.0905 47.657 33.2804 47.8292 33.9152 48.1227C34.5068 48.3964 35.135 48.5294 35.7566 48.5294C36.9479 48.5294 38.1168 48.0404 38.9685 47.1197C39.7307 46.293 40.0968 45.2475 40.1055 44.2019C41.1485 44.1084 42.1636 43.6651 42.9274 42.8369C43.6865 42.0127 44.0527 40.9722 44.0669 39.9332C45.1044 39.8367 46.1134 39.3939 46.8731 38.5698C47.6353 37.743 48.0019 36.698 48.0075 35.6498C49.043 35.5523 50.05 35.11 50.8086 34.2874C51.8095 33.2017 52.1478 31.7407 51.8553 30.396L57.2742 26.0461L59.8239 25.1051C61.067 26.9973 63.5014 27.601 65.4656 26.5915L67.9823 25.2956C70.1237 24.1941 70.9697 21.556 69.8693 19.4131L61.4841 3.11524ZM6.41353 23.5942L4.03336 22.0611C3.3534 21.6218 3.16247 20.7205 3.59816 20.0476L13.5127 4.66081C13.9454 3.98796 14.8437 3.78789 15.5247 4.22511L17.9064 5.76028C18.5848 6.19852 18.7757 7.09889 18.34 7.77268L8.42544 23.1582C8.00598 23.8112 7.06912 24.0192 6.41353 23.5942ZM14.3649 31.4277C14.0805 31.1606 14.0663 30.7112 14.3308 30.4268C14.4959 30.2496 16.4428 28.1609 16.3057 28.3082C16.8729 27.7059 17.79 27.7146 18.3532 28.2447C18.9346 28.7921 18.963 29.7112 18.4116 30.2978C18.2755 30.4435 16.3108 32.5525 16.4463 32.4063C16.1711 32.7018 15.7176 32.7018 15.4409 32.4403L14.3649 31.4277ZM19.6639 36.1655L18.8291 35.3805C18.4929 35.0641 18.4721 34.5461 18.7605 34.1937C18.8981 34.0469 21.9354 30.8004 21.7977 30.9472C22.3136 30.3978 23.2089 30.3099 23.8452 30.9076C24.4211 31.4494 24.448 32.3579 23.9077 32.9333C24.0575 32.7738 21.7261 35.2519 20.9019 36.1284C20.5856 36.4681 20.0082 36.488 19.6639 36.1655ZM23.4816 38.9366C23.1505 38.6269 23.083 38.0947 23.4202 37.7011L25.5093 35.4804C26.0765 34.8782 26.9931 34.8868 27.5552 35.418C28.1448 35.9705 28.1626 36.8906 27.6222 37.462L25.5519 39.6501C25.2218 39.997 24.6317 40.0178 24.2778 39.6862L23.4816 38.9366ZM29.4225 44.0274L27.3126 42.0423L28.1332 41.1709C28.6552 40.6133 29.5734 40.559 30.1807 41.1318C30.4595 41.3933 30.62 41.7483 30.6317 42.1307C30.6428 42.5131 30.5052 42.8772 30.2422 43.1565L29.4225 44.0274ZM48.6677 32.3127C48.1594 32.8637 47.2681 32.9866 46.5842 32.3671L46.5837 32.3661L42.149 28.5676C41.5401 28.0461 40.6215 28.1156 40.0959 28.7255C39.5729 29.3364 39.6439 30.256 40.2554 30.7786L44.6418 34.5374C44.6454 34.5405 44.6494 34.5425 44.653 34.5455C45.2385 35.0889 45.2751 36.008 44.7327 36.5956C44.1954 37.1811 43.2859 37.2187 42.7203 36.7119C42.7137 36.7058 42.7091 36.6977 42.702 36.6916L38.9184 33.041C38.4121 32.555 37.4721 32.4468 36.8607 33.0765L36.8602 33.0775L36.8592 33.078C36.2636 33.6945 36.387 34.6431 36.8948 35.1357L36.8963 35.1367L36.9171 35.1565L40.706 38.8199C40.71 38.8234 40.7146 38.826 40.7187 38.8295C41.2894 39.3739 41.3245 40.2798 40.7867 40.8623C40.2464 41.4509 39.3252 41.4895 38.7575 40.969L35.9879 38.2944C35.4557 37.7784 34.3019 37.4509 33.6021 38.2126C33.0562 38.8032 33.0933 39.7249 33.6834 40.2702L36.7434 43.0932C37.332 43.6371 37.3706 44.5573 36.8303 45.1437C36.3981 45.6114 35.7172 45.7465 35.1398 45.4793C34.9336 45.3839 34.8726 45.3356 33.3608 43.933L33.2212 43.8035C33.4456 43.251 33.5619 42.6564 33.5432 42.0429C33.5076 40.8826 33.0226 39.8065 32.1537 38.9879C31.7089 38.5695 31.1772 38.2765 30.61 38.0906C31.2823 36.4097 30.8593 34.5252 29.5532 33.2974C28.8966 32.6789 28.0542 32.3239 27.1781 32.2102C27.2492 30.965 26.8074 29.6949 25.8192 28.7652C24.6614 27.6759 22.9379 27.3991 21.4591 27.8689C21.2362 27.226 20.8782 26.6217 20.3496 26.124C18.7312 24.6016 16.0143 24.6376 14.3919 26.1377L12.71 24.7376C12.2672 24.3695 11.9442 23.8906 11.7639 23.3579L20.0743 10.4631C22.3626 10.523 24.2084 9.89943 26.7821 11.1649C24.0547 11.9276 22.3991 14.7389 23.0872 17.511C23.7854 20.2876 26.5495 21.9843 29.4212 21.3327C29.4273 21.3317 29.4329 21.3337 29.4384 21.3322L35.5911 19.9565C36.1273 19.8199 36.6946 19.9454 37.1212 20.2876C52.8343 33.9519 47.4151 29.2388 48.5871 30.2585C49.1736 30.8029 49.2105 31.7237 48.6677 32.3127ZM55.6363 23.6266L50.318 27.8964C36.9553 15.6028 49.3014 26.8782 38.9451 18.019C37.8061 17.1049 36.2822 16.7743 34.9111 17.1252L28.8027 18.4902C28.8001 18.4907 28.7986 18.4922 28.7966 18.4928H28.7925C27.3265 18.8254 26.1848 17.894 25.9101 16.8048C25.5973 15.546 26.3611 14.2632 27.5966 13.9489C29.4004 13.5152 27.5641 13.9443 35.069 12.1568C35.1081 12.1502 35.1462 12.1609 35.1853 12.1507C35.1894 12.1492 35.1939 12.1487 35.198 12.1472L36.3441 11.8516C38.4241 11.3524 38.1687 11.1935 39.5561 11.7247C42.602 12.8896 45.5025 13.1577 48.7469 11.9999L52.2164 10.3886L58.4513 22.5065C56.0503 23.418 55.9567 23.3697 55.6363 23.6266ZM66.6498 22.706L64.1331 24.0014C63.4308 24.364 62.5295 24.0674 62.1725 23.3727L54.2004 7.87804C54.1983 7.87347 54.1993 7.86839 54.1968 7.86382C54.1938 7.85722 54.1872 7.85316 54.1841 7.84656L53.7875 7.07519C53.4209 6.3607 53.7022 5.48113 54.4162 5.11349L56.9344 3.81806C57.657 3.44685 58.5299 3.73529 58.8951 4.44724L67.2785 20.744C67.6451 21.459 67.3638 22.3393 66.6498 22.706Z"/>
</mask>
<path d="M61.4841 3.11524C60.3654 0.941773 57.7232 0.137983 55.6032 1.22972L53.085 2.52515C51.1491 3.52045 50.2874 5.76657 50.9466 7.77091L47.6473 9.30751C45.1854 10.1794 42.9058 9.8915 40.5948 9.00536C37.6581 7.88006 36.9737 8.90025 35.7305 9.00333C35.7264 9.00435 35.7229 9.00536 35.7193 9.00638C34.3101 9.34255 31.9138 9.91435 30.7961 10.181L29.0355 9.0719C25.5154 6.87152 22.3319 7.5743 21.4376 7.50683C21.6509 5.73506 20.8313 4.18117 19.4831 3.31277L17.1015 1.7776C15.0936 0.48268 12.3844 1.0367 11.0642 3.08371L1.1501 18.4705C-0.156011 20.4992 0.424947 23.1998 2.45517 24.5094L4.83534 26.042C6.29992 26.986 8.23926 27.0241 9.81499 25.8328C10.1126 26.2497 10.4452 26.6427 10.8453 26.9763L12.3774 28.2515L12.1991 28.4429C10.8469 29.8968 10.9225 32.1876 12.3683 33.548L13.4458 34.5616C14.072 35.1507 14.8788 35.4802 15.731 35.5265C15.8848 36.2582 16.251 36.9524 16.836 37.5018L17.6708 38.2869C18.3762 38.9501 19.2974 39.3157 20.2642 39.3157C20.3221 39.3157 20.3779 39.3005 20.4358 39.298C20.6197 39.9637 20.9701 40.5726 21.487 41.058L22.2833 41.8076C22.884 42.3738 23.6453 42.7084 24.4557 42.8023C24.5908 43.2812 24.8437 43.7195 25.2149 44.0688L27.5285 46.2437C28.0444 46.7292 28.7188 46.9968 29.4282 46.9968C30.1868 46.9968 30.9211 46.68 31.4442 46.1275C33.0905 47.657 33.2804 47.8292 33.9152 48.1227C34.5068 48.3964 35.135 48.5294 35.7566 48.5294C36.9479 48.5294 38.1168 48.0404 38.9685 47.1197C39.7307 46.293 40.0968 45.2475 40.1055 44.2019C41.1485 44.1084 42.1636 43.6651 42.9274 42.8369C43.6865 42.0127 44.0527 40.9722 44.0669 39.9332C45.1044 39.8367 46.1134 39.3939 46.8731 38.5698C47.6353 37.743 48.0019 36.698 48.0075 35.6498C49.043 35.5523 50.05 35.11 50.8086 34.2874C51.8095 33.2017 52.1478 31.7407 51.8553 30.396L57.2742 26.0461L59.8239 25.1051C61.067 26.9973 63.5014 27.601 65.4656 26.5915L67.9823 25.2956C70.1237 24.1941 70.9697 21.556 69.8693 19.4131L61.4841 3.11524ZM6.41353 23.5942L4.03336 22.0611C3.3534 21.6218 3.16247 20.7205 3.59816 20.0476L13.5127 4.66081C13.9454 3.98796 14.8437 3.78789 15.5247 4.22511L17.9064 5.76028C18.5848 6.19852 18.7757 7.09889 18.34 7.77268L8.42544 23.1582C8.00598 23.8112 7.06912 24.0192 6.41353 23.5942ZM14.3649 31.4277C14.0805 31.1606 14.0663 30.7112 14.3308 30.4268C14.4959 30.2496 16.4428 28.1609 16.3057 28.3082C16.8729 27.7059 17.79 27.7146 18.3532 28.2447C18.9346 28.7921 18.963 29.7112 18.4116 30.2978C18.2755 30.4435 16.3108 32.5525 16.4463 32.4063C16.1711 32.7018 15.7176 32.7018 15.4409 32.4403L14.3649 31.4277ZM19.6639 36.1655L18.8291 35.3805C18.4929 35.0641 18.4721 34.5461 18.7605 34.1937C18.8981 34.0469 21.9354 30.8004 21.7977 30.9472C22.3136 30.3978 23.2089 30.3099 23.8452 30.9076C24.4211 31.4494 24.448 32.3579 23.9077 32.9333C24.0575 32.7738 21.7261 35.2519 20.9019 36.1284C20.5856 36.4681 20.0082 36.488 19.6639 36.1655ZM23.4816 38.9366C23.1505 38.6269 23.083 38.0947 23.4202 37.7011L25.5093 35.4804C26.0765 34.8782 26.9931 34.8868 27.5552 35.418C28.1448 35.9705 28.1626 36.8906 27.6222 37.462L25.5519 39.6501C25.2218 39.997 24.6317 40.0178 24.2778 39.6862L23.4816 38.9366ZM29.4225 44.0274L27.3126 42.0423L28.1332 41.1709C28.6552 40.6133 29.5734 40.559 30.1807 41.1318C30.4595 41.3933 30.62 41.7483 30.6317 42.1307C30.6428 42.5131 30.5052 42.8772 30.2422 43.1565L29.4225 44.0274ZM48.6677 32.3127C48.1594 32.8637 47.2681 32.9866 46.5842 32.3671L46.5837 32.3661L42.149 28.5676C41.5401 28.0461 40.6215 28.1156 40.0959 28.7255C39.5729 29.3364 39.6439 30.256 40.2554 30.7786L44.6418 34.5374C44.6454 34.5405 44.6494 34.5425 44.653 34.5455C45.2385 35.0889 45.2751 36.008 44.7327 36.5956C44.1954 37.1811 43.2859 37.2187 42.7203 36.7119C42.7137 36.7058 42.7091 36.6977 42.702 36.6916L38.9184 33.041C38.4121 32.555 37.4721 32.4468 36.8607 33.0765L36.8602 33.0775L36.8592 33.078C36.2636 33.6945 36.387 34.6431 36.8948 35.1357L36.8963 35.1367L36.9171 35.1565L40.706 38.8199C40.71 38.8234 40.7146 38.826 40.7187 38.8295C41.2894 39.3739 41.3245 40.2798 40.7867 40.8623C40.2464 41.4509 39.3252 41.4895 38.7575 40.969L35.9879 38.2944C35.4557 37.7784 34.3019 37.4509 33.6021 38.2126C33.0562 38.8032 33.0933 39.7249 33.6834 40.2702L36.7434 43.0932C37.332 43.6371 37.3706 44.5573 36.8303 45.1437C36.3981 45.6114 35.7172 45.7465 35.1398 45.4793C34.9336 45.3839 34.8726 45.3356 33.3608 43.933L33.2212 43.8035C33.4456 43.251 33.5619 42.6564 33.5432 42.0429C33.5076 40.8826 33.0226 39.8065 32.1537 38.9879C31.7089 38.5695 31.1772 38.2765 30.61 38.0906C31.2823 36.4097 30.8593 34.5252 29.5532 33.2974C28.8966 32.6789 28.0542 32.3239 27.1781 32.2102C27.2492 30.965 26.8074 29.6949 25.8192 28.7652C24.6614 27.6759 22.9379 27.3991 21.4591 27.8689C21.2362 27.226 20.8782 26.6217 20.3496 26.124C18.7312 24.6016 16.0143 24.6376 14.3919 26.1377L12.71 24.7376C12.2672 24.3695 11.9442 23.8906 11.7639 23.3579L20.0743 10.4631C22.3626 10.523 24.2084 9.89943 26.7821 11.1649C24.0547 11.9276 22.3991 14.7389 23.0872 17.511C23.7854 20.2876 26.5495 21.9843 29.4212 21.3327C29.4273 21.3317 29.4329 21.3337 29.4384 21.3322L35.5911 19.9565C36.1273 19.8199 36.6946 19.9454 37.1212 20.2876C52.8343 33.9519 47.4151 29.2388 48.5871 30.2585C49.1736 30.8029 49.2105 31.7237 48.6677 32.3127ZM55.6363 23.6266L50.318 27.8964C36.9553 15.6028 49.3014 26.8782 38.9451 18.019C37.8061 17.1049 36.2822 16.7743 34.9111 17.1252L28.8027 18.4902C28.8001 18.4907 28.7986 18.4922 28.7966 18.4928H28.7925C27.3265 18.8254 26.1848 17.894 25.9101 16.8048C25.5973 15.546 26.3611 14.2632 27.5966 13.9489C29.4004 13.5152 27.5641 13.9443 35.069 12.1568C35.1081 12.1502 35.1462 12.1609 35.1853 12.1507C35.1894 12.1492 35.1939 12.1487 35.198 12.1472L36.3441 11.8516C38.4241 11.3524 38.1687 11.1935 39.5561 11.7247C42.602 12.8896 45.5025 13.1577 48.7469 11.9999L52.2164 10.3886L58.4513 22.5065C56.0503 23.418 55.9567 23.3697 55.6363 23.6266ZM66.6498 22.706L64.1331 24.0014C63.4308 24.364 62.5295 24.0674 62.1725 23.3727L54.2004 7.87804C54.1983 7.87347 54.1993 7.86839 54.1968 7.86382C54.1938 7.85722 54.1872 7.85316 54.1841 7.84656L53.7875 7.07519C53.4209 6.3607 53.7022 5.48113 54.4162 5.11349L56.9344 3.81806C57.657 3.44685 58.5299 3.73529 58.8951 4.44724L67.2785 20.744C67.6451 21.459 67.3638 22.3393 66.6498 22.706Z" fill="black" stroke="white" stroke-width="2.4" mask="url(#path-1-inside-1_1_754)"/>
</svg>
