<svg width="68" height="54" viewBox="0 0 68 54" fill="none" xmlns="http://www.w3.org/2000/svg">
<path d="M1.17954 37.7027H67.4217V39.6968H1.17954V37.7027Z" fill="#312C21" stroke="white" stroke-width="1.15596"/>
<path d="M1.17954 50.6971H67.4217V52.6912H1.17954V50.6971Z" fill="#312C21" stroke="white" stroke-width="1.15596"/>
<path d="M1.25156 41.8989H3.42774V48.4942H1.25156V41.8989Z" fill="#312C21" stroke="white" stroke-width="1.3"/>
<path d="M33.2114 41.8988H35.3876V48.4941H33.2114V41.8988Z" fill="#312C21" stroke="white" stroke-width="1.3"/>
<path d="M65.1739 41.8988H67.3501V48.4941H65.1739V41.8988Z" fill="#312C21" stroke="white" stroke-width="1.3"/>
<path d="M1.17954 19.5913H67.4217V21.5853H1.17954V19.5913Z" fill="#312C21" stroke="white" stroke-width="1.15596"/>
<path d="M1.17954 32.5837H67.4217V34.5778H1.17954V32.5837Z" fill="#312C21" stroke="white" stroke-width="1.15596"/>
<path d="M1.25156 23.787H3.42774V30.3823H1.25156V23.787Z" fill="#312C21" stroke="white" stroke-width="1.3"/>
<path d="M33.2114 23.787H35.3876V30.3823H33.2114V23.787Z" fill="#312C21" stroke="white" stroke-width="1.3"/>
<path d="M65.1739 23.787H67.3501V30.3823H65.1739V23.787Z" fill="#312C21" stroke="white" stroke-width="1.3"/>
<path d="M1.17954 1.47788H67.4217V3.47192H1.17954V1.47788Z" fill="#312C21" stroke="white" stroke-width="1.15596"/>
<path d="M1.17954 14.472H67.4217V16.4661H1.17954V14.472Z" fill="#312C21" stroke="white" stroke-width="1.15596"/>
<path d="M1.25156 5.67344H3.42774V12.2688H1.25156V5.67344Z" fill="#312C21" stroke="white" stroke-width="1.3"/>
<path d="M33.2114 5.67344H35.3876V12.2688H33.2114V5.67344Z" fill="#312C21" stroke="white" stroke-width="1.3"/>
<path d="M65.1739 5.67344H67.3501V12.2688H65.1739V5.67344Z" fill="#312C21" stroke="white" stroke-width="1.3"/>
</svg>
