<svg width="62" height="53" viewBox="0 0 62 53" fill="none" xmlns="http://www.w3.org/2000/svg">
<path d="M33.264 20.6216V20.0406V17.0804C33.264 16.584 32.8615 16.1814 32.3651 16.1814H19.0434C18.5468 16.1814 18.1444 16.5837 18.1439 17.0804L33.264 20.6216ZM33.264 20.6216H33.845M33.264 20.6216H33.845M33.845 20.6216H38.2853C38.7813 20.6219 39.1834 21.0235 39.1846 21.5189C39.1771 22.4551 39.5483 23.3548 40.2139 24.0131M33.845 20.6216L40.2139 24.0131M19.6243 32.7819V33.3628C19.6243 34.7417 20.36 36.0159 21.5541 36.7053C22.7484 37.3947 24.2193 37.3947 25.4134 36.7053L25.4134 36.7053C26.6076 36.0159 27.3433 34.7417 27.3433 33.3628V32.7819H27.9242H33.8449H34.4258V33.3628C34.4258 34.7417 35.1615 36.0159 36.3556 36.7053C37.5499 37.3947 39.0212 37.3947 40.2154 36.7053L40.2154 36.7053C41.4095 36.016 42.1448 34.7418 42.1448 33.3628V32.7819H42.7257C43.2227 32.7819 43.6251 32.3792 43.6251 31.8829V25.9623C43.6251 25.4651 43.2225 25.0624 42.7261 25.0622L19.6243 32.7819ZM19.6243 32.7819H19.0434M19.6243 32.7819H19.0434M19.0434 32.7819C18.5468 32.7819 18.1444 32.3796 18.1439 31.8829L19.0434 32.7819ZM40.2139 24.0131C40.8772 24.6849 41.7822 25.0627 42.726 25.0622L40.2139 24.0131ZM37.5521 22.8588L37.4414 22.4199L36.9888 22.42L33.8447 22.4203L33.2638 22.4204V23.0013V30.4018V30.9828H33.8447H41.2458H41.8267V30.4018V27.2551V26.8048L41.3906 26.6925C40.4679 26.4549 39.6258 25.9723 38.9539 25.2963L38.9539 25.2962L38.9487 25.2911C38.2687 24.6239 37.7851 23.782 37.5521 22.8588ZM22.0032 32.7813H21.4216L21.4222 33.3629C21.4235 34.5006 22.3455 35.4218 23.4829 35.4231H23.4842C24.6211 35.4217 25.5431 34.5006 25.5444 33.3629L25.545 32.7813H24.9634H22.0032ZM19.9419 30.402V30.9829H20.5228H26.0296H30.8841H31.465V30.402V18.5607V17.9798H30.8841H20.5228H19.9419V18.5607V30.402ZM36.8048 32.7813H36.2228L36.2238 33.3632C36.2258 34.5002 37.1466 35.4222 38.2845 35.4235L38.2861 35.4235C39.4227 35.4216 40.3447 34.5007 40.346 33.3629L40.3466 32.7813H39.765H36.8048ZM18.1439 31.8828V17.0805V31.8828Z" fill="black" stroke="white" stroke-width="1.16186"/>
<path d="M10.0534 37.0231L10.0534 37.023C7.15639 31.377 6.54132 24.833 8.33549 18.7452L8.75517 17.3212L9.41342 18.6519L11.2274 22.3188L11.2275 22.319C11.4476 22.7643 11.9875 22.9468 12.4324 22.7268L10.0534 37.0231ZM10.0534 37.0231C12.9509 42.6695 17.9075 46.9858 23.8995 49.0781C29.8911 51.1703 36.4574 50.879 42.2398 48.2637M10.0534 37.0231L42.2398 48.2637M9.42068 14.6899L9.38972 14.6356C9.34335 14.5542 9.27454 14.4881 9.19019 14.4445L9.13417 14.4156L9.08566 14.3753C9.07791 14.3689 9.06988 14.3625 9.06158 14.3561C9.0537 14.3536 9.04555 14.3508 9.03718 14.3478C8.98087 14.3284 8.92017 14.3146 8.8575 14.3071L8.82704 14.3035L8.79713 14.2966C8.75785 14.2877 8.71756 14.2815 8.67667 14.2781C8.63333 14.2831 8.59156 14.291 8.55169 14.3017L8.52157 14.3097L8.49075 14.3145C8.43253 14.3235 8.37536 14.3385 8.31877 14.3597C8.28726 14.3723 8.25885 14.3808 8.2358 14.3867L1.53969 17.6997C1.09756 17.9221 0.917912 18.4593 1.13713 18.9022L1.13726 18.9025C1.35631 19.3456 1.89225 19.5288 2.33689 19.3123C2.33725 19.3121 2.33761 19.3119 2.33797 19.3117L5.77974 17.6091L6.96765 17.0214L6.59479 18.2932C5.04242 23.5883 5.1819 29.236 6.99418 34.4475C8.80691 39.6591 12.2023 44.1747 16.7053 47.3639C21.2088 50.5523 26.5951 52.2553 32.1129 52.2346L32.1157 52.2346C35.8622 52.2382 39.5658 51.4432 42.9805 49.9025C43.4318 49.697 43.6317 49.1652 43.4275 48.7133L9.42068 14.6899ZM9.42068 14.6899L9.46251 14.7365M9.42068 14.6899L9.46251 14.7365M9.46251 14.7365C9.48191 14.758 9.50006 14.7805 9.51687 14.8038L12.8403 21.5215C12.8403 21.5215 12.8404 21.5216 12.8404 21.5216M9.46251 14.7365L12.8404 21.5216M42.2398 48.2637C42.2396 48.2638 42.2395 48.2638 42.2393 48.2639L42.0009 47.7341C36.3543 50.2882 29.9421 50.5728 24.091 48.5296L42.2398 48.2637ZM42.2398 48.2637C42.6921 48.0605 43.223 48.2616 43.4274 48.7132L42.2398 48.2637ZM12.8404 21.5216C13.0604 21.9668 12.8781 22.5061 12.4325 22.7267L12.8404 21.5216Z" fill="black" stroke="white" stroke-width="1.16186"/>
<path d="M59.4363 34.0904L59.4366 34.0903C59.65 33.9845 59.897 33.9679 60.1235 34.0441C60.3452 34.1191 60.5289 34.278 60.6358 34.4871L60.6416 34.4988C60.8617 34.9441 60.6793 35.4833 60.2339 35.7035L60.2337 35.7035L53.5428 39.0137C53.5134 39.0208 53.4772 39.0316 53.4377 39.0486L53.429 39.0523L53.4205 39.0562C53.3219 39.1023 53.2155 39.1299 53.1063 39.1377L53.0841 39.137C52.9739 39.1336 52.8657 39.11 52.7646 39.0675L52.6808 39.0322L52.6709 39.0274C52.4992 38.9442 52.3593 38.8068 52.2725 38.6359C52.2722 38.6352 52.2719 38.6346 52.2716 38.634L48.9325 31.8847C48.9324 31.8844 48.9322 31.8842 48.9321 31.8839C48.7143 31.4385 48.8975 30.9012 49.3412 30.6819L49.3414 30.6818C49.7854 30.462 50.324 30.6433 50.5449 31.0867L50.6055 31.2083L52.3586 34.7525L53.0168 36.0833L53.4365 34.6592C55.2307 28.5714 54.6156 22.0279 51.7182 16.3814C48.8211 10.7353 43.8637 6.41907 37.8721 4.32681C31.8816 2.23461 25.3153 2.52547 19.5328 5.14033C19.0804 5.34393 18.5488 5.14282 18.3445 4.691L18.3445 4.69099C18.1401 4.23883 18.3403 3.70694 18.7917 3.50203C24.9892 0.699951 32.025 0.384828 38.447 2.62277L38.4471 2.62279C44.8691 4.85973 50.1865 9.47923 53.2998 15.5256L53.2998 15.5257C56.4135 21.5713 57.0856 28.5832 55.1772 35.1106L54.8057 36.3815L55.9925 35.7943L59.4363 34.0904ZM53.4783 39.0456C53.4785 39.0455 53.4788 39.0454 53.479 39.0453L53.4783 39.0456ZM52.8249 39.1311L52.8219 39.1286C52.8232 39.1297 52.8244 39.1307 52.8251 39.1312C52.8259 39.1319 52.826 39.132 52.8249 39.1311Z" fill="black" stroke="white" stroke-width="1.16186"/>
</svg>
