<svg width="48" height="55" viewBox="0 0 48 55" fill="none" xmlns="http://www.w3.org/2000/svg">
<path d="M0.804118 40.3129L0.80393 40.3129C0.53944 43.2889 0.280534 53.7318 0.269826 54.181L0.269823 54.1811C0.266403 54.3216 0.32202 54.4602 0.42842 54.5653C0.535166 54.6695 0.683963 54.7303 0.841909 54.7303H46.7001C46.8594 54.7303 47.0095 54.668 47.1164 54.562L0.804118 40.3129ZM0.804118 40.3129L0.804635 40.3028M0.804118 40.3129L0.804635 40.3028M0.804635 40.3028C0.899893 38.4442 1.96366 36.7499 3.64406 35.7983L17.7868 29.9995L18.164 29.8449L17.8741 29.5582C16.5539 28.2532 15.4903 26.7324 14.733 25.0684C13.3241 21.7682 12.5077 18.2638 12.3192 14.7035L12.3083 14.4972L12.1063 14.454C11.8723 14.4039 11.7037 14.2255 11.6681 14.0143C11.6478 13.8888 11.4039 12.3238 11.5101 10.3848C11.6169 8.43252 12.0761 6.15384 13.4214 4.56701L13.4222 4.56607C14.3776 3.42862 15.7868 2.72012 17.3127 2.61582L17.4056 2.60947L17.4748 2.54718C18.632 1.50528 20.5874 0.70309 22.8428 0.40037C25.0928 0.098372 27.6086 0.298273 29.8714 1.22508C31.2936 1.80787 33.1735 2.92127 34.6303 5.00742C36.0849 7.09044 37.1344 10.1669 36.8592 14.7073C36.8451 14.9146 36.7018 15.1027 36.4825 15.1759L36.3149 15.2319L36.2993 15.408C36.0427 18.3213 35.3724 21.1875 34.3073 23.9283L34.3068 23.9294C33.4191 26.2455 32.0033 28.3427 30.1606 30.0698L29.8503 30.3606L30.2456 30.5172C32.9682 31.5961 39.9806 34.3801 42.936 35.5936L43.0385 35.3441L42.9361 35.5936C44.8675 36.3864 45.8164 37.5633 46.2855 38.5868C46.7582 39.618 46.7516 40.5116 46.7408 40.7338L46.7403 40.7457L46.7407 40.7576L47.2723 54.1734L47.2723 54.1736M0.804635 40.3028L47.2723 54.1736M47.2723 54.1736C47.278 54.3152 47.2234 54.4552 47.1168 54.5617L47.2723 54.1736ZM18.0923 3.49079L18.0925 3.4906C19.0939 2.46127 20.9127 1.72978 22.9599 1.45663C25.016 1.18229 27.3507 1.36317 29.4151 2.20865L29.4151 2.20866C30.8936 2.81437 32.4892 3.85096 33.711 5.61788C34.9335 7.38572 35.7679 9.86427 35.7568 13.3294L35.7554 13.7618L35.3677 13.5703C35.004 13.3906 34.5917 13.3206 34.1846 13.37L33.9437 13.3993L33.8893 13.1628C33.5758 11.8017 32.6964 10.6183 31.448 9.88811L31.4458 9.88681C31.3016 9.80062 31.1236 9.7796 30.9602 9.83099L30.9582 9.83164C28.4021 10.613 25.7403 11.0282 23.0585 11.0638C20.6318 11.1647 18.2267 10.5798 16.1425 9.38034L16.1321 9.37438L16.1322 9.37416C15.8835 9.21594 15.5505 9.26658 15.3657 9.48354L15.3633 9.48632L15.3633 9.48631C14.6766 10.2706 14.2652 11.2405 14.1858 12.2578L14.1656 12.5169L13.9058 12.5062C13.609 12.494 13.3149 12.5557 13.052 12.6848L12.6878 12.8636L12.6639 12.4586C12.6089 11.5257 12.5999 10.2248 12.8124 8.90976C13.0243 7.59875 13.4606 6.24597 14.3178 5.23465L18.0923 3.49079ZM18.0923 3.49079C17.9934 3.59258 17.8553 3.65597 17.7058 3.66449M18.0923 3.49079L17.7058 3.66449M17.7058 3.66449C16.392 3.67809 15.1494 4.25165 14.3178 5.23461C14.3179 5.23455 14.3179 5.2345 14.3179 5.23445L17.7058 3.66449ZM23.4995 38.4765L23.6448 38.5694L23.7901 38.4765L25.8159 37.1807L25.9633 37.0863L25.9373 36.9133L25.6594 35.07L25.6248 34.8405H25.3928H21.8968H21.6647L21.6301 35.07L21.3523 36.9133L21.3262 37.0864L21.4737 37.1807L23.4995 38.4765ZM23.3226 39.663L23.3226 39.663L22.6437 39.2286L22.259 38.9825L22.2292 39.4382L21.3188 53.3694L21.3001 53.6567H21.5879H25.7024H25.9902L25.9715 53.3694L25.061 39.4382L25.0313 38.9827L24.6467 39.2285L23.9671 39.6629L23.967 39.663C23.7725 39.7875 23.5171 39.7875 23.3226 39.663ZM15.7777 24.6254L15.7775 24.6255L15.7815 24.6341C16.5025 26.1875 17.6315 27.8739 19.0759 29.1756C20.5203 30.4775 22.2979 31.4095 24.3078 31.4095C26.4363 31.4095 28.2894 30.3679 29.7926 28.8753C31.2954 27.3831 32.4669 25.4235 33.242 23.5365L33.242 23.5365L33.2441 23.5312C34.3126 20.7655 34.9693 17.8695 35.1939 14.9284L35.2034 14.8039L35.1146 14.7161C34.8364 14.4411 34.4182 14.3577 34.0536 14.4952L33.485 14.6696C33.4849 14.6696 33.4847 14.6697 33.4846 14.6697C33.3018 14.7252 33.1033 14.6914 32.9543 14.582L32.9542 14.5819C32.8057 14.4729 32.7262 14.3049 32.7345 14.135L32.7345 14.1347L32.7621 13.554L32.7633 13.5283L32.7597 13.5029C32.6138 12.4857 32.0265 11.5786 31.1488 11.0025L31.045 10.9344L30.9257 10.969C28.3707 11.7105 25.7188 12.1037 23.0487 12.1371L23.0487 12.1371L23.0441 12.1372C20.6606 12.208 18.2977 11.7001 16.1754 10.6601L15.9558 10.5525L15.8273 10.7605C15.475 11.3308 15.3021 11.9879 15.3309 12.652L15.3308 12.652L15.3313 12.6592L15.3748 13.2776L15.3748 13.2778C15.3873 13.4536 15.3067 13.6275 15.1522 13.7385L15.1516 13.7389C14.9973 13.8505 14.7908 13.8804 14.605 13.8155L14.6048 13.8154L13.9963 13.6033L13.9696 13.5939L13.9414 13.5904C13.827 13.5759 13.7103 13.5894 13.6019 13.6304L13.4219 13.6985L13.4277 13.8909C13.5403 17.5744 14.3364 21.2094 15.7777 24.6254ZM4.13317 36.7681L4.09213 36.7849L4.07389 36.8007C2.80062 37.5992 2.004 38.9418 1.94442 40.4085C1.72457 42.8835 1.50273 50.7999 1.4348 53.3794L1.42751 53.6561L1.70439 53.6561L19.9 53.6556L20.1526 53.6556L20.1691 53.4035L21.147 38.4358L21.1574 38.2769L21.0232 38.1911L20.3871 37.7843L20.3867 37.784C20.2032 37.6671 20.1126 37.4648 20.1426 37.2662L20.1426 37.2661L20.6001 34.2278C20.6001 34.2277 20.6001 34.2277 20.6001 34.2277C20.6389 33.9711 20.8731 33.7656 21.1669 33.7656H26.1219C26.4157 33.7656 26.6498 33.9711 26.6887 34.2276C26.6887 34.2277 26.6887 34.2277 26.6887 34.2278L27.1457 37.2661L27.1457 37.2662C27.1756 37.4648 27.085 37.6671 26.9015 37.784L26.901 37.7843L26.2655 38.1911L26.1314 38.277L26.1418 38.4358L27.1197 53.4035L27.1362 53.6556L27.3888 53.6556L45.8265 53.6561L46.1071 53.6561L46.096 53.3758L45.5962 40.7605C45.5962 40.7604 45.5962 40.7603 45.5962 40.7601C45.5955 40.7406 45.5961 40.7207 45.5982 40.6985L45.5982 40.6986L45.5987 40.6916C45.6036 40.6174 45.6381 39.9247 45.2613 39.0797C44.881 38.2267 44.0902 37.2387 42.4787 36.577L42.4787 36.577C39.1077 35.193 30.4451 31.7611 28.927 31.1599L28.7983 31.109L28.6819 31.1838C27.3885 32.0148 25.8689 32.4668 24.3101 32.4835C22.4681 32.4327 20.6946 31.8112 19.2551 30.7134L19.1323 30.6197L18.9893 30.6783L4.13317 36.7681Z" fill="black" stroke="white" stroke-width="0.539346"/>
</svg>
