<svg width="85" height="45" viewBox="0 0 85 45" fill="none" xmlns="http://www.w3.org/2000/svg">
<path d="M16.3973 35.7126V30.0325V35.7126ZM16.3973 35.7126H16.3972L16.3973 36.2626H16.9473L22.5624 36.2619C23.0637 32.8371 25.9996 30.1725 29.5337 30.1725C33.0685 30.1725 36.0045 32.8376 36.5057 36.2626H54.037H54.587V35.7126V4.06387V3.51387H54.037L16.3973 35.7126ZM78.1426 10.6824L78.144 10.6821L78.1429 10.6825L83.5248 24.0205C83.5248 24.0206 83.5249 24.0208 83.5249 24.0209C83.5674 24.1269 83.5893 24.2409 83.5893 24.355L83.5893 37.7036C83.5893 37.7041 83.5893 37.7046 83.5893 37.7051C83.5865 38.1914 83.1926 38.5851 82.7061 38.5875C82.7059 38.5875 82.7056 38.5875 82.7053 38.5875L76.1657 38.5875H75.7421L75.6339 38.9971C74.8919 41.8061 72.3604 43.8941 69.3684 43.8941C66.3758 43.8941 63.8387 41.8048 63.0943 38.9966L62.9859 38.5875H62.5627H36.3394H35.9162L35.8077 38.9966C35.0633 41.8056 32.5263 43.8941 29.5337 43.8941C26.5411 43.8941 24.004 41.8048 23.2596 38.9966L23.1512 38.5875H22.728L14.9562 38.5875C14.9559 38.5875 14.9557 38.5875 14.9554 38.5875C14.4688 38.5851 14.0748 38.1912 14.0723 37.7046L14.0723 30.0325L14.0723 30.0297C14.0711 29.795 14.1636 29.5689 14.3297 29.4016L13.9394 29.0141L14.3297 29.4016C14.4955 29.2346 14.7211 29.14 14.9558 29.1392C15.1929 29.1384 15.4205 29.2322 15.5874 29.3991C15.7543 29.5661 15.8481 29.7937 15.8473 30.0307V30.0325V36.2626V36.8126L16.3973 36.8126L22.5625 36.8119L23.0378 36.8119L23.1066 36.3416C23.5699 33.1763 26.2831 30.7225 29.5337 30.7225C32.785 30.7225 35.4983 33.1767 35.9615 36.3422L36.0303 36.8126H36.5057H54.587H55.137V36.2626V3.51387V2.96387H54.587H14.9559C14.4698 2.96137 14.0762 2.56813 14.073 2.08215C14.0761 1.59538 14.47 1.20229 14.9559 1.19978L56.0277 1.20044C56.0279 1.20044 56.0281 1.20044 56.0283 1.20044C56.5161 1.20195 56.9116 1.59665 56.914 2.0842C56.914 2.08448 56.914 2.08476 56.914 2.08505L56.914 9.57572V10.1257H57.464H77.3257C77.6861 10.1287 78.0086 10.3487 78.1426 10.6824ZM7.81219 11.1853L7.81218 11.1843C7.811 10.9498 7.90336 10.7237 8.06891 10.5562C8.23543 10.3891 8.46083 10.2948 8.69502 10.2938C8.69528 10.2938 8.69553 10.2938 8.69578 10.2938L30.3829 10.2938L30.3847 10.2938C30.6215 10.293 30.8485 10.3866 31.0156 10.5537L31.0161 10.5541C31.1833 10.7209 31.2767 10.948 31.2755 11.1843L31.2755 11.1852C31.2747 11.4205 31.1805 11.6457 31.0136 11.8109L31.0132 11.8114C30.8461 11.9772 30.6205 12.0696 30.3848 12.0688H30.3829H8.69511C8.20786 12.0663 7.81377 11.6715 7.81219 11.1853ZM57.4654 11.9008H56.9155L56.9154 12.4507L56.9143 22.9226L56.9142 23.4727L57.4643 23.4727L80.5743 23.4733L81.3891 23.4733L81.0844 22.7176L76.8618 12.2451L76.723 11.9008H76.3517H57.4654ZM2.20936 19.4605H2.21121L30.3829 19.4605L30.3848 19.4605C30.6209 19.4597 30.847 19.5525 31.014 19.7187L31.0145 19.7192C31.1808 19.8843 31.2748 20.1092 31.2755 20.3449C31.2744 20.5797 31.1802 20.8043 31.0137 20.9692L31.0132 20.9697C30.8457 21.136 30.6202 21.2283 30.3857 21.2271H30.3829L2.21121 21.2271L2.20844 21.2271C1.97371 21.2283 1.74762 21.1358 1.58029 20.9697L1.19277 21.36L1.58029 20.9697C1.41419 20.8048 1.31962 20.5799 1.31795 20.3445C1.31883 20.1096 1.41301 19.8846 1.57965 19.7192L1.58012 19.7187C1.74717 19.5524 1.97326 19.4597 2.20936 19.4605ZM31.402 19.3289C31.1312 19.0594 30.7648 18.9092 30.3829 18.9105L31.8255 20.3454C31.8249 19.9636 31.6728 19.5978 31.402 19.3289ZM57.4654 25.2477H56.9154L56.9154 25.7976L56.9153 36.2618L56.9152 36.8118H57.4653H62.4009H62.8763L62.9451 36.3415C63.4084 33.1759 66.1192 30.7224 69.3696 30.7224C72.6198 30.7224 75.3241 33.1751 75.7856 36.3412L75.8542 36.8118H76.3299H81.2655H81.8155V36.2618V25.7977V25.2477H81.2655H57.4654ZM29.4283 32.4967V32.4966L29.4186 32.4968L29.4144 32.4969C26.8526 32.5618 24.8155 34.6656 24.8155 37.3003C24.8155 39.9746 26.9145 42.1179 29.535 42.1179C32.1555 42.1179 34.2544 39.9744 34.2544 37.3003C34.2544 34.6235 32.1531 32.4968 29.535 32.4968C29.5292 32.4968 29.5213 32.4967 29.512 32.4967C29.4887 32.4965 29.4568 32.4963 29.4283 32.4967ZM69.2627 32.4967V32.4966L69.253 32.4968L69.2488 32.4969C66.687 32.5618 64.6499 34.6656 64.6499 37.3003C64.6499 39.9746 66.7488 42.1179 69.3693 42.1179C71.9895 42.1179 74.0913 39.9749 74.0913 37.3003C74.0913 34.6231 71.987 32.4968 69.3693 32.4968C69.3491 32.4968 69.3025 32.4962 69.2627 32.4967Z" fill="black" stroke="white" stroke-width="1.1"/>
</svg>
