<svg width="49" height="55" viewBox="0 0 49 55" fill="none" xmlns="http://www.w3.org/2000/svg">
<path d="M38.4276 35.5944L38.2974 35.7178L38.424 35.8448L48.4689 45.9305L48.4693 45.931C48.6069 46.0682 48.6526 46.2701 48.5767 46.4502L48.5767 46.4503C48.4981 46.6371 48.3236 46.7514 48.1322 46.7514H41.3383H41.1633V46.9264V53.7203C41.1633 53.9114 41.0487 54.0861 40.8621 54.1647L40.862 54.1644L40.8522 54.1693C40.8055 54.1925 40.7427 54.2035 40.6802 54.2035C40.5579 54.2035 40.444 54.1579 40.3432 54.0572L27.3218 41.0358L27.2611 40.9751L27.176 40.9859C26.2466 41.1038 25.3719 41.1688 24.5119 41.1688C23.6646 41.1688 22.7772 41.1038 21.8478 40.9859L21.7627 40.9751L21.7021 41.0358L8.6806 54.0572L8.68041 54.057L8.67402 54.0642C8.59331 54.1542 8.47167 54.2035 8.34366 54.2035C8.28039 54.2035 8.2182 54.1927 8.17231 54.1696L8.17249 54.1693L8.16157 54.1647C7.97475 54.0861 7.86047 53.9116 7.86047 53.7203V46.9264V46.7514H7.68547H0.891585C0.700403 46.7514 0.525774 46.6368 0.447117 46.4502L0.447142 46.4502L0.4459 46.4474C0.37283 46.2822 0.416803 46.0686 0.554646 45.9308L0.554727 45.9307L10.6272 35.845L10.7541 35.7179L10.6238 35.5944C6.60274 31.7818 4.29272 26.495 4.29272 20.9348C4.29272 9.77419 13.3651 0.701855 24.5257 0.701855C35.6863 0.701855 44.7586 9.77396 44.7586 20.9348C44.7586 26.4955 42.4486 31.7823 38.4276 35.5944ZM8.82695 52.1274V52.5495L9.12562 52.2512L20.3699 41.0201L20.5971 40.7932L20.2833 40.7253C17.0851 40.0333 14.1088 38.5845 11.5895 36.4826L11.4667 36.3802L11.3536 36.4932L2.36071 45.4862L2.06196 45.7849H2.48445H8.34377C8.61567 45.7849 8.82695 45.9962 8.82695 46.2681V52.1274ZM27.3925 40.004L27.3953 40.0036C31.0765 39.459 34.4918 37.8507 37.2949 35.3666C41.4276 31.7125 43.7926 26.4508 43.7926 20.9365C43.7926 10.306 35.1554 1.66946 24.5256 1.66946C13.8951 1.66946 5.25852 10.3067 5.25852 20.9365C5.25852 26.4505 7.62394 31.7121 11.7561 35.3665C14.5453 37.8384 17.94 39.4294 21.5991 39.9949L21.601 39.9968L21.6591 40.0044C23.6756 40.2696 25.376 40.2696 27.3925 40.004ZM39.925 52.2517L40.2237 52.5504V52.128V46.2686C40.2237 45.9967 40.435 45.7855 40.7069 45.7855H46.5662H46.9887L46.69 45.4867L37.6839 36.4806L37.5708 36.3675L37.448 36.47C34.9282 38.5723 31.9651 40.0339 28.7681 40.7125L28.4527 40.7794L28.6807 41.0074L39.925 52.2517Z" fill="black" stroke="white" stroke-width="0.35"/>
<path d="M37.6898 16.9615L37.6897 16.9615L37.6866 16.9646L31.4975 23.0077L31.4318 23.0719L31.4473 23.1625L32.9083 31.6926C32.9083 31.6929 32.9084 31.6932 32.9084 31.6935C32.9374 31.8783 32.859 32.0629 32.7144 32.1691L32.7084 32.1735L32.7028 32.1784C32.6371 32.2358 32.5373 32.2669 32.4362 32.2669C32.3597 32.2669 32.2844 32.2477 32.2199 32.211L32.22 32.2109L32.2148 32.2081L24.552 28.1792L24.4705 28.1364L24.3891 28.1792L16.7263 32.2081L16.7259 32.2084C16.563 32.2946 16.3585 32.276 16.2135 32.1695L16.2135 32.1695L16.2089 32.1663C16.0604 32.0644 15.9895 31.8848 16.0194 31.694C16.0195 31.6937 16.0195 31.6934 16.0196 31.6931L17.4806 23.1629L17.4961 23.0723L17.4303 23.0081L11.2289 16.9644L11.2289 16.9644L11.2258 16.9615C11.0924 16.8377 11.0443 16.6466 11.1017 16.4738C11.1606 16.2982 11.3051 16.1735 11.4889 16.1439C11.4893 16.1439 11.4896 16.1438 11.4899 16.1438L20.0592 14.8934L20.1502 14.8801L20.1908 14.7976L24.0218 7.03037C24.0218 7.03025 24.0219 7.03012 24.022 7.03C24.0973 6.87981 24.2666 6.79146 24.4578 6.79146C24.649 6.79146 24.8182 6.87981 24.8936 7.03C24.8937 7.03013 24.8937 7.03025 24.8938 7.03037L28.7247 14.7976L28.7654 14.8801L28.8564 14.8934L37.426 16.1438C37.6009 16.1733 37.7563 16.3008 37.8138 16.4736L37.8138 16.4737C37.8713 16.646 37.8232 16.8376 37.6898 16.9615ZM24.6748 27.1566L24.6748 27.1567L24.6802 27.1595L31.488 30.7273L31.8012 30.8914L31.7417 30.5428L30.4513 22.9853L30.4513 22.9853L30.4508 22.9824C30.4222 22.8307 30.4683 22.6782 30.5861 22.56C30.5864 22.5597 30.5866 22.5595 30.5868 22.5593L36.0756 17.2018L36.329 16.9545L35.9786 16.9034L28.3947 15.7973L28.3947 15.7973L28.3896 15.7967C28.2243 15.7775 28.0934 15.6821 28.0277 15.5412L28.0277 15.5412L28.026 15.5377L24.6288 8.66488L24.4719 8.3475L24.315 8.66488L20.9203 15.5326C20.8362 15.6769 20.6966 15.7788 20.5525 15.7969L20.5525 15.7968L20.549 15.7974L12.9656 16.9039L12.6153 16.955L12.8686 17.2023L18.3574 22.5597C18.3576 22.5599 18.3578 22.5602 18.3581 22.5604C18.4647 22.6674 18.5215 22.8337 18.4934 22.9828L18.4929 22.9858L17.2025 30.5433L17.1428 30.8926L17.4565 30.7276L24.2372 27.1594L24.2372 27.1595L24.2423 27.1566C24.3067 27.1199 24.382 27.1006 24.4585 27.1006C24.5351 27.1006 24.6103 27.1199 24.6748 27.1566Z" fill="black" stroke="white" stroke-width="0.35"/>
</svg>
