<svg width="68" height="54" viewBox="0 0 68 54" fill="none" xmlns="http://www.w3.org/2000/svg">
<path d="M62.265 48.3757L62.265 48.7757H62.665H65.9855C66.4079 48.7757 66.6913 49.0829 66.6908 49.3934V49.3939V52.4478C66.6908 52.7582 66.4058 53.066 65.9837 53.066H1.79189C1.36938 53.066 1.08481 52.7579 1.08481 52.4478V49.3939C1.08481 49.0835 1.36978 48.7757 1.79189 48.7757H5.11235H5.51235V48.3757V11.731C5.51235 11.4206 5.79732 11.1128 6.21943 11.1128H12.8604C13.2829 11.1128 13.5674 11.4209 13.5674 11.731L13.5667 48.3757L13.5667 48.7757H13.9667H17.2871H17.6871V48.3757V19.8743C17.6871 19.5638 17.9721 19.2561 18.3942 19.2561H25.0351C25.4576 19.2561 25.7422 19.5642 25.7422 19.8742L25.7407 48.3757L25.7406 48.7757H26.1407H29.4611H29.8611V48.3757V6.64144C29.8611 6.33103 30.1461 6.02324 30.5682 6.02324H37.2091C37.6316 6.02324 37.9162 6.33139 37.9162 6.64143L37.9154 48.3757L37.9154 48.7757H38.3154H41.6359H42.0359V48.3757V11.731C42.0359 11.4206 42.3209 11.1128 42.743 11.1128H49.3839C49.8064 11.1128 50.091 11.4209 50.091 11.731L50.0902 48.3757L50.0902 48.7757H50.4902H53.8107H54.2107V48.3757V1.55189C54.2107 1.24148 54.4956 0.933691 54.9177 0.933691H61.5587C61.9812 0.933691 62.2657 1.24185 62.2657 1.55188L62.265 48.3757ZM56.025 2.1698H55.625V2.5698V48.3757V48.7757H56.025H60.4517H60.8517V48.3757V2.5698V2.1698H60.4517H56.025ZM43.8503 12.3489H43.4503V12.7489V48.3757V48.7757H43.8503H48.277H48.677V48.3757V12.7489V12.3489H48.277H43.8503ZM31.6764 7.25935H31.2764V7.65935V48.3757V48.7757H31.6764H36.103H36.503V48.3757V7.65935V7.25935H36.103H31.6764ZM19.5017 20.4916H19.1017V20.8916V48.3752V48.7752H19.5017H23.9283H24.3283V48.3752V20.8916V20.4916H23.9283H19.5017ZM7.32776 12.3489H6.92776V12.7489V48.3757V48.7757H7.32776H11.7544H12.1544V48.3757V12.7489V12.3489H11.7544H7.32776ZM64.8791 51.8294H65.2791V51.4294V50.4112V50.0112H64.8791H2.90073H2.50073V50.4112V51.4294V51.8294H2.90073H64.8791Z" fill="black" stroke="white" stroke-width="0.8"/>
</svg>
