<svg width="18" height="24" viewBox="0 0 18 24" fill="none" xmlns="http://www.w3.org/2000/svg">
<path d="M8.79316 0.00195312C4.08338 0.00195312 0.251709 3.83362 0.251709 8.54336C0.251709 14.3883 7.89547 22.969 8.22091 23.3314C8.52659 23.6719 9.06029 23.6713 9.36541 23.3314C9.69085 22.969 17.3346 14.3883 17.3346 8.54336C17.3345 3.83362 13.5029 0.00195312 8.79316 0.00195312ZM8.79316 12.8408C6.42355 12.8408 4.49579 10.913 4.49579 8.54336C4.49579 6.17375 6.4236 4.24599 8.79316 4.24599C11.1627 4.24599 13.0905 6.1738 13.0905 8.54341C13.0905 10.913 11.1627 12.8408 8.79316 12.8408Z" fill="#FFC501"/>
</svg>
